<svg width="57" height="91" viewBox="0 0 57 91" fill="none" xmlns="http://www.w3.org/2000/svg">
<circle cx="28.0095" cy="28.2719" r="28" fill="#19232F"/>
<circle cx="28.0095" cy="28.2719" r="28" fill="url(#paint0_linear_23_566)" fill-opacity="0.25"/>
<circle cx="28.0095" cy="28.2719" r="28" fill="white" fill-opacity="0.1"/>
<path fill-rule="evenodd" clip-rule="evenodd" d="M28.0095 39.2719C21.9343 39.2719 17.0095 34.347 17.0095 28.2719C17.0095 22.1967 21.9343 17.2719 28.0095 17.2719C34.0846 17.2719 39.0095 22.1967 39.0095 28.2719C39.0095 34.347 34.0846 39.2719 28.0095 39.2719ZM28.0095 37.2719C32.98 37.2719 37.0095 33.2424 37.0095 28.2719C37.0095 23.3013 32.98 19.2719 28.0095 19.2719C23.0389 19.2719 19.0095 23.3013 19.0095 28.2719C19.0095 33.2424 23.0389 37.2719 28.0095 37.2719ZM32.92 31.7203L31.2841 30.5697C30.5388 31.6295 29.329 32.2719 28.0095 32.2719C26.69 32.2719 25.4802 31.6295 24.7348 30.5697L23.0989 31.7203C24.2149 33.3071 26.0319 34.2719 28.0095 34.2719C29.987 34.2719 31.804 33.3071 32.92 31.7203ZM30.0095 27.2719V25.2719H32.0095V27.2719H30.0095ZM24.0095 25.2719V27.2719H26.0095V25.2719H24.0095Z" fill="white"/>
<path d="M12.9001 83.2856H9.5954L8.90399 85.2719H7.36298L10.5856 76.7406H11.9157L15.1442 85.2719H13.5974L12.9001 83.2856ZM10.0114 82.0902H12.4841L11.2477 78.5512L10.0114 82.0902ZM19.7497 84.6508C19.3317 85.143 18.738 85.3891 17.9684 85.3891C17.2809 85.3891 16.7595 85.1879 16.404 84.7856C16.0524 84.3832 15.8766 83.8012 15.8766 83.0395V78.932H17.3005V83.0219C17.3005 83.8266 17.6345 84.2289 18.3024 84.2289C18.9938 84.2289 19.4606 83.9809 19.7028 83.4848V78.932H21.1266V85.2719H19.7849L19.7497 84.6508ZM24.361 77.391V78.932H25.4802V79.9867H24.361V83.5258C24.361 83.768 24.4079 83.9438 24.5016 84.0531C24.5993 84.1586 24.7712 84.2113 25.0173 84.2113C25.1813 84.2113 25.3474 84.1918 25.5153 84.1527V85.2543C25.1911 85.3441 24.8786 85.3891 24.5778 85.3891C23.4841 85.3891 22.9372 84.7856 22.9372 83.5785V79.9867H21.8942V78.932H22.9372V77.391H24.361ZM27.9763 79.6234C28.4411 79.0844 29.029 78.8148 29.7399 78.8148C31.0915 78.8148 31.777 79.5863 31.7966 81.1293V85.2719H30.3727V81.182C30.3727 80.7445 30.277 80.4359 30.0856 80.2563C29.8981 80.0727 29.6208 79.9809 29.2536 79.9809C28.6833 79.9809 28.2575 80.2348 27.9763 80.7426V85.2719H26.5524V76.2719H27.9763V79.6234ZM32.9743 82.0434C32.9743 81.4223 33.0974 80.8637 33.3434 80.3676C33.5895 79.8676 33.9352 79.4848 34.3806 79.2191C34.8259 78.9496 35.3376 78.8148 35.9157 78.8148C36.7712 78.8148 37.4645 79.0902 37.9958 79.641C38.5309 80.1918 38.82 80.9223 38.863 81.8324L38.8688 82.1664C38.8688 82.7914 38.7477 83.35 38.5056 83.8422C38.2673 84.3344 37.9235 84.7152 37.4743 84.9848C37.029 85.2543 36.5134 85.3891 35.9274 85.3891C35.0329 85.3891 34.3161 85.0922 33.777 84.4984C33.2419 83.9008 32.9743 83.1059 32.9743 82.1137V82.0434ZM34.3981 82.1664C34.3981 82.8188 34.5329 83.3305 34.8024 83.7016C35.072 84.0688 35.447 84.2523 35.9274 84.2523C36.4079 84.2523 36.7809 84.0648 37.0466 83.6898C37.3161 83.3148 37.4509 82.766 37.4509 82.0434C37.4509 81.4027 37.3122 80.8949 37.0349 80.5199C36.7614 80.1449 36.3884 79.9574 35.9157 79.9574C35.4509 79.9574 35.0817 80.143 34.8083 80.5141C34.5349 80.8813 34.3981 81.432 34.3981 82.1664ZM43.3923 80.2328C43.2048 80.2016 43.0114 80.1859 42.8122 80.1859C42.1599 80.1859 41.7204 80.4359 41.4938 80.9359V85.2719H40.07V78.932H41.4294L41.4645 79.641C41.8083 79.0902 42.2849 78.8148 42.8942 78.8148C43.0974 78.8148 43.2653 78.8422 43.3981 78.8969L43.3923 80.2328ZM47.8454 83.5492C47.8454 83.2953 47.7399 83.102 47.529 82.9691C47.322 82.8363 46.9763 82.7191 46.4919 82.6176C46.0075 82.516 45.6032 82.3871 45.279 82.2309C44.5681 81.8871 44.2126 81.3891 44.2126 80.7367C44.2126 80.1898 44.4431 79.7328 44.904 79.3656C45.3649 78.9984 45.9509 78.8148 46.6618 78.8148C47.4196 78.8148 48.0309 79.0023 48.4958 79.3773C48.9645 79.7523 49.1989 80.2387 49.1989 80.8363H47.7751C47.7751 80.5629 47.6735 80.3363 47.4704 80.1566C47.2673 79.9731 46.9977 79.8813 46.6618 79.8813C46.3493 79.8813 46.0934 79.9535 45.8942 80.0981C45.6989 80.2426 45.6013 80.4359 45.6013 80.6781C45.6013 80.8969 45.6931 81.0668 45.8766 81.1879C46.0602 81.309 46.4313 81.432 46.9899 81.557C47.5485 81.6781 47.986 81.8246 48.3024 81.9965C48.6227 82.1645 48.8591 82.3676 49.0114 82.6059C49.1677 82.8441 49.2458 83.1332 49.2458 83.4731C49.2458 84.0434 49.0095 84.5063 48.5368 84.8617C48.0641 85.2133 47.445 85.3891 46.6794 85.3891C46.1599 85.3891 45.697 85.2953 45.2907 85.1078C44.8845 84.9203 44.5681 84.6625 44.3415 84.3344C44.1149 84.0063 44.0016 83.6527 44.0016 83.2738H45.3845C45.404 83.6098 45.5309 83.8695 45.7653 84.0531C45.9997 84.2328 46.3102 84.3227 46.697 84.3227C47.072 84.3227 47.3571 84.2523 47.5524 84.1117C47.7477 83.9672 47.8454 83.7797 47.8454 83.5492Z" fill="white"/>
<defs>
<linearGradient id="paint0_linear_23_566" x1="28.0095" y1="0.271881" x2="28.0095" y2="56.2719" gradientUnits="userSpaceOnUse">
<stop stop-color="#91BEE4"/>
<stop offset="1" stop-color="white" stop-opacity="0"/>
</linearGradient>
</defs>
</svg>
