<svg width="57" height="91" viewBox="0 0 57 91" fill="none" xmlns="http://www.w3.org/2000/svg">
<circle cx="28.0095" cy="28.2719" r="28" fill="#19232F"/>
<path fill-rule="evenodd" clip-rule="evenodd" d="M28.0095 39.2719C21.9343 39.2719 17.0095 34.347 17.0095 28.2719C17.0095 22.1967 21.9343 17.2719 28.0095 17.2719C34.0846 17.2719 39.0095 22.1967 39.0095 28.2719C39.0095 34.347 34.0846 39.2719 28.0095 39.2719ZM28.0095 37.2719C32.98 37.2719 37.0095 33.2424 37.0095 28.2719C37.0095 23.3013 32.98 19.2719 28.0095 19.2719C23.0389 19.2719 19.0095 23.3013 19.0095 28.2719C19.0095 33.2424 23.0389 37.2719 28.0095 37.2719ZM32.92 31.7203L31.2841 30.5697C30.5388 31.6295 29.329 32.2719 28.0095 32.2719C26.69 32.2719 25.4802 31.6295 24.7348 30.5697L23.0989 31.7203C24.2149 33.3071 26.0319 34.2719 28.0095 34.2719C29.987 34.2719 31.804 33.3071 32.92 31.7203ZM30.0095 27.2719V25.2719H32.0095V27.2719H30.0095ZM24.0095 25.2719V27.2719H26.0095V25.2719H24.0095Z" fill="#898F97"/>
<path d="M11.9001 83.2856H8.5954L7.90399 85.2719H6.36298L9.58563 76.7406H10.9157L14.1442 85.2719H12.5974L11.9001 83.2856ZM9.01141 82.0902H11.4841L10.2477 78.5512L9.01141 82.0902ZM18.7497 84.6508C18.3317 85.143 17.738 85.3891 16.9684 85.3891C16.2809 85.3891 15.7595 85.1879 15.404 84.7856C15.0524 84.3832 14.8766 83.8012 14.8766 83.0395V78.932H16.3005V83.0219C16.3005 83.8266 16.6345 84.2289 17.3024 84.2289C17.9938 84.2289 18.4606 83.9809 18.7028 83.4848V78.932H20.1266V85.2719H18.7849L18.7497 84.6508ZM23.361 77.391V78.932H24.4802V79.9867H23.361V83.5258C23.361 83.768 23.4079 83.9438 23.5016 84.0531C23.5993 84.1586 23.7712 84.2113 24.0173 84.2113C24.1813 84.2113 24.3474 84.1918 24.5153 84.1527V85.2543C24.1911 85.3441 23.8786 85.3891 23.5778 85.3891C22.4841 85.3891 21.9372 84.7856 21.9372 83.5785V79.9867H20.8942V78.932H21.9372V77.391H23.361ZM26.9763 79.6234C27.4411 79.0844 28.029 78.8148 28.7399 78.8148C30.0915 78.8148 30.777 79.5863 30.7966 81.1293V85.2719H29.3727V81.182C29.3727 80.7445 29.277 80.4359 29.0856 80.2563C28.8981 80.0727 28.6208 79.9809 28.2536 79.9809C27.6833 79.9809 27.2575 80.2348 26.9763 80.7426V85.2719H25.5524V76.2719H26.9763V79.6234ZM31.9743 82.0434C31.9743 81.4223 32.0974 80.8637 32.3434 80.3676C32.5895 79.8676 32.9352 79.4848 33.3806 79.2191C33.8259 78.9496 34.3376 78.8148 34.9157 78.8148C35.7712 78.8148 36.4645 79.0902 36.9958 79.641C37.5309 80.1918 37.82 80.9223 37.863 81.8324L37.8688 82.1664C37.8688 82.7914 37.7477 83.35 37.5056 83.8422C37.2673 84.3344 36.9235 84.7152 36.4743 84.9848C36.029 85.2543 35.5134 85.3891 34.9274 85.3891C34.0329 85.3891 33.3161 85.0922 32.777 84.4984C32.2419 83.9008 31.9743 83.1059 31.9743 82.1137V82.0434ZM33.3981 82.1664C33.3981 82.8188 33.5329 83.3305 33.8024 83.7016C34.072 84.0688 34.447 84.2523 34.9274 84.2523C35.4079 84.2523 35.7809 84.0648 36.0466 83.6898C36.3161 83.3148 36.4509 82.766 36.4509 82.0434C36.4509 81.4027 36.3122 80.8949 36.0349 80.5199C35.7614 80.1449 35.3884 79.9574 34.9157 79.9574C34.4509 79.9574 34.0817 80.143 33.8083 80.5141C33.5349 80.8813 33.3981 81.432 33.3981 82.1664ZM42.3923 80.2328C42.2048 80.2016 42.0114 80.1859 41.8122 80.1859C41.1599 80.1859 40.7204 80.4359 40.4938 80.9359V85.2719H39.07V78.932H40.4294L40.4645 79.641C40.8083 79.0902 41.2849 78.8148 41.8942 78.8148C42.0974 78.8148 42.2653 78.8422 42.3981 78.8969L42.3923 80.2328ZM46.8454 83.5492C46.8454 83.2953 46.7399 83.102 46.529 82.9691C46.322 82.8363 45.9763 82.7191 45.4919 82.6176C45.0075 82.516 44.6032 82.3871 44.279 82.2309C43.5681 81.8871 43.2126 81.3891 43.2126 80.7367C43.2126 80.1898 43.4431 79.7328 43.904 79.3656C44.3649 78.9984 44.9509 78.8148 45.6618 78.8148C46.4196 78.8148 47.0309 79.0023 47.4958 79.3773C47.9645 79.7523 48.1989 80.2387 48.1989 80.8363H46.7751C46.7751 80.5629 46.6735 80.3363 46.4704 80.1566C46.2673 79.9731 45.9977 79.8813 45.6618 79.8813C45.3493 79.8813 45.0934 79.9535 44.8942 80.0981C44.6989 80.2426 44.6013 80.4359 44.6013 80.6781C44.6013 80.8969 44.6931 81.0668 44.8766 81.1879C45.0602 81.309 45.4313 81.432 45.9899 81.557C46.5485 81.6781 46.986 81.8246 47.3024 81.9965C47.6227 82.1645 47.8591 82.3676 48.0114 82.6059C48.1677 82.8441 48.2458 83.1332 48.2458 83.4731C48.2458 84.0434 48.0095 84.5063 47.5368 84.8617C47.0641 85.2133 46.445 85.3891 45.6794 85.3891C45.1599 85.3891 44.697 85.2953 44.2907 85.1078C43.8845 84.9203 43.5681 84.6625 43.3415 84.3344C43.1149 84.0063 43.0016 83.6527 43.0016 83.2738H44.3845C44.404 83.6098 44.5309 83.8695 44.7653 84.0531C44.9997 84.2328 45.3102 84.3227 45.697 84.3227C46.072 84.3227 46.3571 84.2523 46.5524 84.1117C46.7477 83.9672 46.8454 83.7797 46.8454 83.5492Z" fill="#898F97"/>
</svg>
