<svg width="60" height="91" viewBox="0 0 60 91" fill="none" xmlns="http://www.w3.org/2000/svg">
<circle cx="28.0095" cy="28.2719" r="28" fill="#19232F"/>
<circle cx="28.0095" cy="28.2719" r="28" fill="url(#paint0_linear_112_1635)" fill-opacity="0.25"/>
<circle cx="28.0095" cy="28.2719" r="28" fill="white" fill-opacity="0.1"/>
<path fill-rule="evenodd" clip-rule="evenodd" d="M34.0095 37.2719C35.114 37.2719 36.0095 36.3765 36.0095 35.2719H37.0095C38.114 35.2719 39.0095 34.3765 39.0095 33.2719V23.2719C39.0095 22.1673 38.114 21.2719 37.0095 21.2719H36.0095C36.0095 20.1673 35.114 19.2719 34.0095 19.2719H22.0095C20.9049 19.2719 20.0095 20.1673 20.0095 21.2719H19.0095C17.9049 21.2719 17.0095 22.1673 17.0095 23.2719V33.2719C17.0095 34.3765 17.9049 35.2719 19.0095 35.2719H20.0095C20.0095 36.3765 20.9049 37.2719 22.0095 37.2719H34.0095ZM34.0095 21.2719V35.2719H22.0095V21.2719H34.0095ZM28.0095 28.4123V23.4034L32.5642 26.4398L31.4548 28.1039L30.0095 27.1404V30.7719C30.0095 32.2253 28.614 33.2719 27.0095 33.2719C25.4049 33.2719 24.0095 32.2253 24.0095 30.7719C24.0095 29.3185 25.4049 28.2719 27.0095 28.2719C27.3566 28.2719 27.6939 28.3209 28.0095 28.4123ZM19.0095 23.2719H20.0095V33.2719H19.0095V23.2719ZM36.0095 33.2719H37.0095V23.2719H36.0095V33.2719ZM28.0095 30.7719C28.0095 30.9753 27.614 31.2719 27.0095 31.2719C26.4049 31.2719 26.0095 30.9753 26.0095 30.7719C26.0095 30.5685 26.4049 30.2719 27.0095 30.2719C27.614 30.2719 28.0095 30.5685 28.0095 30.7719Z" fill="white"/>
<path d="M7.71259 82.4945C7.62665 83.4047 7.29071 84.1156 6.70477 84.6273C6.11884 85.1352 5.33954 85.3891 4.36688 85.3891C3.68719 85.3891 3.08759 85.2289 2.56805 84.9086C2.05243 84.5844 1.65399 84.1254 1.37274 83.5316C1.09149 82.9379 0.945007 82.2484 0.933289 81.4633V80.6664C0.933289 79.8617 1.07587 79.1527 1.36102 78.5395C1.64618 77.9262 2.05438 77.4535 2.58563 77.1215C3.12079 76.7895 3.73798 76.6234 4.43719 76.6234C5.3786 76.6234 6.13641 76.8793 6.71063 77.391C7.28485 77.9027 7.61884 78.6254 7.71259 79.559H6.23602C6.16571 78.9457 5.98602 78.5043 5.69696 78.2348C5.4118 77.9613 4.99188 77.8246 4.43719 77.8246C3.79266 77.8246 3.29657 78.0609 2.94891 78.5336C2.60516 79.0023 2.42938 79.6918 2.42157 80.602V81.3578C2.42157 82.2797 2.58563 82.9828 2.91376 83.4672C3.24579 83.9516 3.73016 84.1938 4.36688 84.1938C4.94891 84.1938 5.38641 84.0629 5.67938 83.8012C5.97235 83.5395 6.1579 83.1039 6.23602 82.4945H7.71259ZM12.6931 85.2719C12.6306 85.1508 12.5759 84.9535 12.529 84.6801C12.0759 85.1527 11.5212 85.3891 10.8649 85.3891C10.2282 85.3891 9.70868 85.2074 9.30634 84.8441C8.90399 84.4809 8.70282 84.0316 8.70282 83.4965C8.70282 82.8207 8.95282 82.3031 9.45282 81.9438C9.95673 81.5805 10.6755 81.3988 11.6091 81.3988H12.4821V80.9828C12.4821 80.6547 12.3903 80.393 12.2067 80.1977C12.0231 79.9984 11.7438 79.8988 11.3688 79.8988C11.0446 79.8988 10.779 79.9809 10.572 80.1449C10.3649 80.3051 10.2614 80.5102 10.2614 80.7602H8.83759C8.83759 80.4125 8.95282 80.0883 9.18329 79.7875C9.41376 79.4828 9.72626 79.2445 10.1208 79.0727C10.5192 78.9008 10.9626 78.8148 11.4509 78.8148C12.1931 78.8148 12.7849 79.0023 13.2263 79.3773C13.6677 79.7484 13.8942 80.2719 13.9059 80.9477V83.807C13.9059 84.3773 13.986 84.8324 14.1462 85.1723V85.2719H12.6931ZM11.1286 84.2465C11.4099 84.2465 11.6735 84.1781 11.9196 84.0414C12.1696 83.9047 12.3571 83.7211 12.4821 83.4906V82.2953H11.7145C11.1872 82.2953 10.7907 82.3871 10.5251 82.5707C10.2595 82.7543 10.1266 83.0141 10.1266 83.35C10.1266 83.6234 10.2165 83.8422 10.3962 84.0063C10.5798 84.1664 10.8239 84.2465 11.1286 84.2465ZM17.1813 77.391V78.932H18.3005V79.9867H17.1813V83.5258C17.1813 83.768 17.2282 83.9438 17.322 84.0531C17.4196 84.1586 17.5915 84.2113 17.8376 84.2113C18.0016 84.2113 18.1677 84.1918 18.3356 84.1527V85.2543C18.0114 85.3441 17.6989 85.3891 17.3981 85.3891C16.3044 85.3891 15.7575 84.7856 15.7575 83.5785V79.9867H14.7145V78.932H15.7575V77.391H17.1813ZM22.1852 85.3891C21.2829 85.3891 20.5505 85.1059 19.988 84.5395C19.4294 83.9691 19.1501 83.2113 19.1501 82.266V82.0902C19.1501 81.4574 19.2712 80.893 19.5134 80.3969C19.7595 79.8969 20.1032 79.5082 20.5446 79.2309C20.986 78.9535 21.4782 78.8148 22.0212 78.8148C22.8845 78.8148 23.5505 79.0902 24.0192 79.641C24.4919 80.1918 24.7282 80.9711 24.7282 81.9789V82.5531H20.5856C20.6286 83.0766 20.8024 83.4906 21.1071 83.7953C21.4157 84.1 21.8024 84.2523 22.2673 84.2523C22.9196 84.2523 23.4509 83.9887 23.861 83.4613L24.6286 84.1938C24.3747 84.5727 24.0349 84.8676 23.6091 85.0785C23.1872 85.2856 22.7126 85.3891 22.1852 85.3891ZM22.0153 79.9574C21.6247 79.9574 21.3083 80.0941 21.0661 80.3676C20.8278 80.641 20.6755 81.0219 20.6091 81.5102H23.322V81.4047C23.2907 80.9281 23.1638 80.5688 22.9411 80.3266C22.7184 80.0805 22.4099 79.9574 22.0153 79.9574ZM25.5895 82.0551C25.5895 81.0707 25.82 80.2856 26.2809 79.6996C26.7458 79.1098 27.361 78.8148 28.1266 78.8148C28.8493 78.8148 29.4177 79.0668 29.8317 79.5707L29.8962 78.932H31.1794V85.0785C31.1794 85.9106 30.9196 86.5668 30.4001 87.0473C29.8845 87.5277 29.1872 87.768 28.3083 87.768C27.8434 87.768 27.3884 87.6703 26.9431 87.475C26.5016 87.2836 26.1657 87.0316 25.9352 86.7191L26.6091 85.8637C27.0466 86.3832 27.5856 86.643 28.2263 86.643C28.6989 86.643 29.072 86.5141 29.3454 86.2563C29.6188 86.0023 29.7556 85.6273 29.7556 85.1313V84.7035C29.3454 85.1606 28.7985 85.3891 28.1149 85.3891C27.3727 85.3891 26.7653 85.0941 26.2927 84.5043C25.8239 83.9145 25.5895 83.0981 25.5895 82.0551ZM27.0075 82.1781C27.0075 82.8148 27.1364 83.3168 27.3942 83.684C27.6559 84.0473 28.0173 84.2289 28.4782 84.2289C29.0524 84.2289 29.4782 83.9828 29.7556 83.4906V80.7016C29.486 80.2211 29.0641 79.9809 28.4899 79.9809C28.0212 79.9809 27.6559 80.1664 27.3942 80.5375C27.1364 80.9086 27.0075 81.4555 27.0075 82.1781ZM32.3806 82.0434C32.3806 81.4223 32.5036 80.8637 32.7497 80.3676C32.9958 79.8676 33.3415 79.4848 33.7868 79.2191C34.2321 78.9496 34.7438 78.8148 35.322 78.8148C36.1774 78.8148 36.8708 79.0902 37.402 79.641C37.9372 80.1918 38.2263 80.9223 38.2692 81.8324L38.2751 82.1664C38.2751 82.7914 38.154 83.35 37.9118 83.8422C37.6735 84.3344 37.3298 84.7152 36.8806 84.9848C36.4352 85.2543 35.9196 85.3891 35.3337 85.3891C34.4391 85.3891 33.7224 85.0922 33.1833 84.4984C32.6481 83.9008 32.3806 83.1059 32.3806 82.1137V82.0434ZM33.8044 82.1664C33.8044 82.8188 33.9391 83.3305 34.2087 83.7016C34.4782 84.0688 34.8532 84.2523 35.3337 84.2523C35.8141 84.2523 36.1872 84.0648 36.4528 83.6898C36.7224 83.3148 36.8571 82.766 36.8571 82.0434C36.8571 81.4027 36.7184 80.8949 36.4411 80.5199C36.1677 80.1449 35.7946 79.9574 35.322 79.9574C34.8571 79.9574 34.488 80.143 34.2145 80.5141C33.9411 80.8813 33.8044 81.432 33.8044 82.1664ZM42.7985 80.2328C42.611 80.2016 42.4177 80.1859 42.2184 80.1859C41.5661 80.1859 41.1266 80.4359 40.9001 80.9359V85.2719H39.4763V78.932H40.8356L40.8708 79.641C41.2145 79.0902 41.6911 78.8148 42.3005 78.8148C42.5036 78.8148 42.6716 78.8422 42.8044 78.8969L42.7985 80.2328ZM45.2126 85.2719H43.7888V78.932H45.2126V85.2719ZM43.7009 77.2856C43.7009 77.0668 43.7692 76.8852 43.9059 76.7406C44.0466 76.5961 44.2458 76.5238 44.5036 76.5238C44.7614 76.5238 44.9606 76.5961 45.1013 76.7406C45.2419 76.8852 45.3122 77.0668 45.3122 77.2856C45.3122 77.5004 45.2419 77.6801 45.1013 77.8246C44.9606 77.9652 44.7614 78.0356 44.5036 78.0356C44.2458 78.0356 44.0466 77.9652 43.9059 77.8246C43.7692 77.6801 43.7009 77.5004 43.7009 77.2856ZM49.5602 85.3891C48.6579 85.3891 47.9255 85.1059 47.363 84.5395C46.8044 83.9691 46.5251 83.2113 46.5251 82.266V82.0902C46.5251 81.4574 46.6462 80.893 46.8884 80.3969C47.1345 79.8969 47.4782 79.5082 47.9196 79.2309C48.361 78.9535 48.8532 78.8148 49.3962 78.8148C50.2595 78.8148 50.9255 79.0902 51.3942 79.641C51.8669 80.1918 52.1032 80.9711 52.1032 81.9789V82.5531H47.9606C48.0036 83.0766 48.1774 83.4906 48.4821 83.7953C48.7907 84.1 49.1774 84.2523 49.6423 84.2523C50.2946 84.2523 50.8259 83.9887 51.236 83.4613L52.0036 84.1938C51.7497 84.5727 51.4099 84.8676 50.9841 85.0785C50.5622 85.2856 50.0876 85.3891 49.5602 85.3891ZM49.3903 79.9574C48.9997 79.9574 48.6833 80.0941 48.4411 80.3676C48.2028 80.641 48.0505 81.0219 47.9841 81.5102H50.697V81.4047C50.6657 80.9281 50.5388 80.5688 50.3161 80.3266C50.0934 80.0805 49.7849 79.9574 49.3903 79.9574ZM56.7673 83.5492C56.7673 83.2953 56.6618 83.102 56.4509 82.9691C56.2438 82.8363 55.8981 82.7191 55.4138 82.6176C54.9294 82.516 54.5251 82.3871 54.2009 82.2309C53.4899 81.8871 53.1345 81.3891 53.1345 80.7367C53.1345 80.1898 53.3649 79.7328 53.8259 79.3656C54.2868 78.9984 54.8727 78.8148 55.5837 78.8148C56.3415 78.8148 56.9528 79.0023 57.4177 79.3773C57.8864 79.7523 58.1208 80.2387 58.1208 80.8363H56.697C56.697 80.5629 56.5954 80.3363 56.3923 80.1566C56.1891 79.9731 55.9196 79.8813 55.5837 79.8813C55.2712 79.8813 55.0153 79.9535 54.8161 80.0981C54.6208 80.2426 54.5231 80.4359 54.5231 80.6781C54.5231 80.8969 54.6149 81.0668 54.7985 81.1879C54.9821 81.309 55.3532 81.432 55.9118 81.557C56.4704 81.6781 56.9079 81.8246 57.2243 81.9965C57.5446 82.1645 57.7809 82.3676 57.9333 82.6059C58.0895 82.8441 58.1677 83.1332 58.1677 83.4731C58.1677 84.0434 57.9313 84.5063 57.4587 84.8617C56.986 85.2133 56.3669 85.3891 55.6013 85.3891C55.0817 85.3891 54.6188 85.2953 54.2126 85.1078C53.8063 84.9203 53.4899 84.6625 53.2634 84.3344C53.0368 84.0063 52.9235 83.6527 52.9235 83.2738H54.3063C54.3259 83.6098 54.4528 83.8695 54.6872 84.0531C54.9216 84.2328 55.2321 84.3227 55.6188 84.3227C55.9938 84.3227 56.279 84.2523 56.4743 84.1117C56.6696 83.9672 56.7673 83.7797 56.7673 83.5492Z" fill="white"/>
<defs>
<linearGradient id="paint0_linear_112_1635" x1="28.0095" y1="0.271881" x2="28.0095" y2="56.2719" gradientUnits="userSpaceOnUse">
<stop stop-color="#91BEE4"/>
<stop offset="1" stop-color="white" stop-opacity="0"/>
</linearGradient>
</defs>
</svg>
