<svg width="57" height="91" viewBox="0 0 57 91" fill="none" xmlns="http://www.w3.org/2000/svg">
<circle cx="28.0095" cy="28.2719" r="28" fill="#19232F"/>
<circle cx="28.0095" cy="28.2719" r="28" fill="url(#paint0_linear_23_650)" fill-opacity="0.25"/>
<circle cx="28.0095" cy="28.2719" r="28" fill="white" fill-opacity="0.1"/>
<path fill-rule="evenodd" clip-rule="evenodd" d="M29.2817 17.5801L38.138 22.5003C39.3 23.1458 39.3 24.5979 38.138 25.2435L36.6468 26.0719L38.138 26.9003C39.3 27.5458 39.3 28.9979 38.138 29.6435L36.6468 30.4719L38.138 31.3003C39.3 31.9458 39.3 33.3979 38.138 34.0435L29.2817 38.9636C28.5419 39.3746 27.4771 39.3746 26.7372 38.9636L17.881 34.0435C16.719 33.3979 16.719 31.9458 17.881 31.3003L19.3721 30.4719L17.881 29.6435C16.719 28.9979 16.719 27.5458 17.881 26.9003L19.3721 26.0719L17.881 25.2435C16.719 24.5979 16.719 23.1458 17.881 22.5003L26.7372 17.5801C27.4771 17.1691 28.5419 17.1691 29.2817 17.5801ZM29.2817 30.1636L34.3818 27.3302L36.0767 28.2719L34.3818 29.2135L32.1167 30.4719L28.2133 32.6405C28.1379 32.6823 27.881 32.6823 27.8056 32.6405L23.9022 30.4719L21.6371 29.2135L19.9422 28.2719L21.6371 27.3302L26.7372 30.1636C27.4771 30.5746 28.5419 30.5746 29.2817 30.1636ZM21.6371 31.7302L19.9422 32.6719L27.8056 37.0405C27.881 37.0823 28.1379 37.0823 28.2133 37.0405L36.0767 32.6719L34.3818 31.7302L29.2817 34.5636C28.5419 34.9746 27.4771 34.9746 26.7372 34.5636L21.6371 31.7302ZM27.8056 19.5033C27.881 19.4614 28.1379 19.4614 28.2133 19.5033L36.0767 23.8719L28.2133 28.2405C28.1379 28.2824 27.881 28.2824 27.8056 28.2405L19.9422 23.8719L27.8056 19.5033Z" fill="white"/>
<path d="M9.32977 81.4633H5.82587V84.0883H9.92157V85.2719H4.34344V76.7406H9.88055V77.9359H5.82587V80.2914H9.32977V81.4633ZM16.5427 82.1664C16.5427 83.1469 16.32 83.9301 15.8747 84.516C15.4294 85.0981 14.8317 85.3891 14.0817 85.3891C13.3864 85.3891 12.8298 85.1606 12.4118 84.7035V87.7094H10.988V78.932H12.3005L12.3591 79.5766C12.777 79.0688 13.3454 78.8148 14.0641 78.8148C14.8376 78.8148 15.4431 79.1039 15.8806 79.682C16.322 80.2563 16.5427 81.0551 16.5427 82.0785V82.1664ZM15.1247 82.0434C15.1247 81.4106 14.9977 80.9086 14.7438 80.5375C14.4938 80.1664 14.1345 79.9809 13.6657 79.9809C13.0837 79.9809 12.6657 80.2211 12.4118 80.7016V83.5141C12.6696 84.0063 13.0915 84.2523 13.6774 84.2523C14.1306 84.2523 14.4841 84.0707 14.738 83.7074C14.9958 83.3402 15.1247 82.7856 15.1247 82.0434ZM19.2673 85.2719H17.8434V78.932H19.2673V85.2719ZM17.7556 77.2856C17.7556 77.0668 17.8239 76.8852 17.9606 76.7406C18.1013 76.5961 18.3005 76.5238 18.5583 76.5238C18.8161 76.5238 19.0153 76.5961 19.1559 76.7406C19.2966 76.8852 19.3669 77.0668 19.3669 77.2856C19.3669 77.5004 19.2966 77.6801 19.1559 77.8246C19.0153 77.9652 18.8161 78.0356 18.5583 78.0356C18.3005 78.0356 18.1013 77.9652 17.9606 77.8246C17.8239 77.6801 17.7556 77.5004 17.7556 77.2856ZM24.3766 83.5492C24.3766 83.2953 24.2712 83.102 24.0602 82.9691C23.8532 82.8363 23.5075 82.7191 23.0231 82.6176C22.5388 82.516 22.1345 82.3871 21.8102 82.2309C21.0993 81.8871 20.7438 81.3891 20.7438 80.7367C20.7438 80.1898 20.9743 79.7328 21.4352 79.3656C21.8962 78.9984 22.4821 78.8148 23.1931 78.8148C23.9509 78.8148 24.5622 79.0023 25.027 79.3773C25.4958 79.7523 25.7302 80.2387 25.7302 80.8363H24.3063C24.3063 80.5629 24.2048 80.3363 24.0016 80.1566C23.7985 79.9731 23.529 79.8813 23.1931 79.8813C22.8806 79.8813 22.6247 79.9535 22.4255 80.0981C22.2302 80.2426 22.1325 80.4359 22.1325 80.6781C22.1325 80.8969 22.2243 81.0668 22.4079 81.1879C22.5915 81.309 22.9626 81.432 23.5212 81.557C24.0798 81.6781 24.5173 81.8246 24.8337 81.9965C25.154 82.1645 25.3903 82.3676 25.5427 82.6059C25.6989 82.8441 25.777 83.1332 25.777 83.4731C25.777 84.0434 25.5407 84.5063 25.0681 84.8617C24.5954 85.2133 23.9763 85.3891 23.2106 85.3891C22.6911 85.3891 22.2282 85.2953 21.822 85.1078C21.4157 84.9203 21.0993 84.6625 20.8727 84.3344C20.6462 84.0063 20.5329 83.6527 20.5329 83.2738H21.9157C21.9352 83.6098 22.0622 83.8695 22.2966 84.0531C22.5309 84.2328 22.8415 84.3227 23.2282 84.3227C23.6032 84.3227 23.8884 84.2523 24.0837 84.1117C24.279 83.9672 24.3766 83.7797 24.3766 83.5492ZM26.7556 82.0434C26.7556 81.4223 26.8786 80.8637 27.1247 80.3676C27.3708 79.8676 27.7165 79.4848 28.1618 79.2191C28.6071 78.9496 29.1188 78.8148 29.697 78.8148C30.5524 78.8148 31.2458 79.0902 31.777 79.641C32.3122 80.1918 32.6013 80.9223 32.6442 81.8324L32.6501 82.1664C32.6501 82.7914 32.529 83.35 32.2868 83.8422C32.0485 84.3344 31.7048 84.7152 31.2556 84.9848C30.8102 85.2543 30.2946 85.3891 29.7087 85.3891C28.8141 85.3891 28.0974 85.0922 27.5583 84.4984C27.0231 83.9008 26.7556 83.1059 26.7556 82.1137V82.0434ZM28.1794 82.1664C28.1794 82.8188 28.3141 83.3305 28.5837 83.7016C28.8532 84.0688 29.2282 84.2523 29.7087 84.2523C30.1891 84.2523 30.5622 84.0648 30.8278 83.6898C31.0974 83.3148 31.2321 82.766 31.2321 82.0434C31.2321 81.4027 31.0934 80.8949 30.8161 80.5199C30.5427 80.1449 30.1696 79.9574 29.697 79.9574C29.2321 79.9574 28.863 80.143 28.5895 80.5141C28.3161 80.8813 28.1794 81.432 28.1794 82.1664ZM33.5876 82.0551C33.5876 81.0785 33.8141 80.2953 34.2673 79.7055C34.7204 79.1117 35.3278 78.8148 36.0895 78.8148C36.7614 78.8148 37.3044 79.0492 37.7184 79.518V76.2719H39.1423V85.2719H37.8532L37.7829 84.6156C37.3571 85.1313 36.7888 85.3891 36.0778 85.3891C35.3356 85.3891 34.7341 85.0902 34.2731 84.4926C33.8161 83.8949 33.5876 83.0824 33.5876 82.0551ZM35.0114 82.1781C35.0114 82.8227 35.1345 83.3266 35.3806 83.6898C35.6306 84.0492 35.9841 84.2289 36.4411 84.2289C37.0231 84.2289 37.4489 83.9691 37.7184 83.4496V80.7426C37.4567 80.2348 37.0349 79.9809 36.4528 79.9809C35.9919 79.9809 35.6364 80.1645 35.3864 80.5316C35.1364 80.8949 35.0114 81.4438 35.0114 82.1781ZM43.4196 85.3891C42.5173 85.3891 41.7849 85.1059 41.2224 84.5395C40.6638 83.9691 40.3845 83.2113 40.3845 82.266V82.0902C40.3845 81.4574 40.5056 80.893 40.7477 80.3969C40.9938 79.8969 41.3376 79.5082 41.779 79.2309C42.2204 78.9535 42.7126 78.8148 43.2556 78.8148C44.1188 78.8148 44.7849 79.0902 45.2536 79.641C45.7263 80.1918 45.9626 80.9711 45.9626 81.9789V82.5531H41.82C41.863 83.0766 42.0368 83.4906 42.3415 83.7953C42.6501 84.1 43.0368 84.2523 43.5016 84.2523C44.154 84.2523 44.6852 83.9887 45.0954 83.4613L45.863 84.1938C45.6091 84.5727 45.2692 84.8676 44.8434 85.0785C44.4216 85.2856 43.947 85.3891 43.4196 85.3891ZM43.2497 79.9574C42.8591 79.9574 42.5427 80.0941 42.3005 80.3676C42.0622 80.641 41.9099 81.0219 41.8434 81.5102H44.5563V81.4047C44.5251 80.9281 44.3981 80.5688 44.1755 80.3266C43.9528 80.0805 43.6442 79.9574 43.2497 79.9574ZM50.6266 83.5492C50.6266 83.2953 50.5212 83.102 50.3102 82.9691C50.1032 82.8363 49.7575 82.7191 49.2731 82.6176C48.7888 82.516 48.3845 82.3871 48.0602 82.2309C47.3493 81.8871 46.9938 81.3891 46.9938 80.7367C46.9938 80.1898 47.2243 79.7328 47.6852 79.3656C48.1462 78.9984 48.7321 78.8148 49.4431 78.8148C50.2009 78.8148 50.8122 79.0023 51.277 79.3773C51.7458 79.7523 51.9802 80.2387 51.9802 80.8363H50.5563C50.5563 80.5629 50.4548 80.3363 50.2516 80.1566C50.0485 79.9731 49.779 79.8813 49.4431 79.8813C49.1306 79.8813 48.8747 79.9535 48.6755 80.0981C48.4802 80.2426 48.3825 80.4359 48.3825 80.6781C48.3825 80.8969 48.4743 81.0668 48.6579 81.1879C48.8415 81.309 49.2126 81.432 49.7712 81.557C50.3298 81.6781 50.7673 81.8246 51.0837 81.9965C51.404 82.1645 51.6403 82.3676 51.7927 82.6059C51.9489 82.8441 52.027 83.1332 52.027 83.4731C52.027 84.0434 51.7907 84.5063 51.3181 84.8617C50.8454 85.2133 50.2263 85.3891 49.4606 85.3891C48.9411 85.3891 48.4782 85.2953 48.072 85.1078C47.6657 84.9203 47.3493 84.6625 47.1227 84.3344C46.8962 84.0063 46.7829 83.6527 46.7829 83.2738H48.1657C48.1852 83.6098 48.3122 83.8695 48.5466 84.0531C48.7809 84.2328 49.0915 84.3227 49.4782 84.3227C49.8532 84.3227 50.1384 84.2523 50.3337 84.1117C50.529 83.9672 50.6266 83.7797 50.6266 83.5492Z" fill="white"/>
<defs>
<linearGradient id="paint0_linear_23_650" x1="28.0095" y1="0.271881" x2="28.0095" y2="56.2719" gradientUnits="userSpaceOnUse">
<stop stop-color="#91BEE4"/>
<stop offset="1" stop-color="white" stop-opacity="0"/>
</linearGradient>
</defs>
</svg>
