<svg width="57" height="91" viewBox="0 0 57 91" fill="none" xmlns="http://www.w3.org/2000/svg">
<circle cx="28.0095" cy="28.2719" r="28" fill="#19232F"/>
<path fill-rule="evenodd" clip-rule="evenodd" d="M29.2817 17.5801L38.138 22.5003C39.3 23.1458 39.3 24.5979 38.138 25.2435L36.6468 26.0719L38.138 26.9003C39.3 27.5458 39.3 28.9979 38.138 29.6435L36.6468 30.4719L38.138 31.3003C39.3 31.9458 39.3 33.3979 38.138 34.0435L29.2817 38.9636C28.5419 39.3746 27.4771 39.3746 26.7372 38.9636L17.881 34.0435C16.719 33.3979 16.719 31.9458 17.881 31.3003L19.3721 30.4719L17.881 29.6435C16.719 28.9979 16.719 27.5458 17.881 26.9003L19.3721 26.0719L17.881 25.2435C16.719 24.5979 16.719 23.1458 17.881 22.5003L26.7372 17.5801C27.4771 17.1691 28.5419 17.1691 29.2817 17.5801ZM29.2817 30.1636L34.3818 27.3302L36.0767 28.2719L34.3818 29.2135L32.1167 30.4719L28.2133 32.6405C28.1379 32.6823 27.881 32.6823 27.8056 32.6405L23.9022 30.4719L21.6371 29.2135L19.9422 28.2719L21.6371 27.3302L26.7372 30.1636C27.4771 30.5746 28.5419 30.5746 29.2817 30.1636ZM21.6371 31.7302L19.9422 32.6719L27.8056 37.0405C27.881 37.0823 28.1379 37.0823 28.2133 37.0405L36.0767 32.6719L34.3818 31.7302L29.2817 34.5636C28.5419 34.9746 27.4771 34.9746 26.7372 34.5636L21.6371 31.7302ZM27.8056 19.5033C27.881 19.4614 28.1379 19.4614 28.2133 19.5033L36.0767 23.8719L28.2133 28.2405C28.1379 28.2824 27.881 28.2824 27.8056 28.2405L19.9422 23.8719L27.8056 19.5033Z" fill="#898F97"/>
<path d="M8.32977 81.4633H4.82587V84.0883H8.92157V85.2719H3.34344V76.7406H8.88055V77.9359H4.82587V80.2914H8.32977V81.4633ZM15.5427 82.1664C15.5427 83.1469 15.32 83.9301 14.8747 84.516C14.4294 85.0981 13.8317 85.3891 13.0817 85.3891C12.3864 85.3891 11.8298 85.1606 11.4118 84.7035V87.7094H9.98798V78.932H11.3005L11.3591 79.5766C11.777 79.0688 12.3454 78.8148 13.0641 78.8148C13.8376 78.8148 14.4431 79.1039 14.8806 79.682C15.322 80.2563 15.5427 81.0551 15.5427 82.0785V82.1664ZM14.1247 82.0434C14.1247 81.4106 13.9977 80.9086 13.7438 80.5375C13.4938 80.1664 13.1345 79.9809 12.6657 79.9809C12.0837 79.9809 11.6657 80.2211 11.4118 80.7016V83.5141C11.6696 84.0063 12.0915 84.2523 12.6774 84.2523C13.1306 84.2523 13.4841 84.0707 13.738 83.7074C13.9958 83.3402 14.1247 82.7856 14.1247 82.0434ZM18.2673 85.2719H16.8434V78.932H18.2673V85.2719ZM16.7556 77.2856C16.7556 77.0668 16.8239 76.8852 16.9606 76.7406C17.1013 76.5961 17.3005 76.5238 17.5583 76.5238C17.8161 76.5238 18.0153 76.5961 18.1559 76.7406C18.2966 76.8852 18.3669 77.0668 18.3669 77.2856C18.3669 77.5004 18.2966 77.6801 18.1559 77.8246C18.0153 77.9652 17.8161 78.0356 17.5583 78.0356C17.3005 78.0356 17.1013 77.9652 16.9606 77.8246C16.8239 77.6801 16.7556 77.5004 16.7556 77.2856ZM23.3766 83.5492C23.3766 83.2953 23.2712 83.102 23.0602 82.9691C22.8532 82.8363 22.5075 82.7191 22.0231 82.6176C21.5388 82.516 21.1345 82.3871 20.8102 82.2309C20.0993 81.8871 19.7438 81.3891 19.7438 80.7367C19.7438 80.1898 19.9743 79.7328 20.4352 79.3656C20.8962 78.9984 21.4821 78.8148 22.1931 78.8148C22.9509 78.8148 23.5622 79.0023 24.027 79.3773C24.4958 79.7523 24.7302 80.2387 24.7302 80.8363H23.3063C23.3063 80.5629 23.2048 80.3363 23.0016 80.1566C22.7985 79.9731 22.529 79.8813 22.1931 79.8813C21.8806 79.8813 21.6247 79.9535 21.4255 80.0981C21.2302 80.2426 21.1325 80.4359 21.1325 80.6781C21.1325 80.8969 21.2243 81.0668 21.4079 81.1879C21.5915 81.309 21.9626 81.432 22.5212 81.557C23.0798 81.6781 23.5173 81.8246 23.8337 81.9965C24.154 82.1645 24.3903 82.3676 24.5427 82.6059C24.6989 82.8441 24.777 83.1332 24.777 83.4731C24.777 84.0434 24.5407 84.5063 24.0681 84.8617C23.5954 85.2133 22.9763 85.3891 22.2106 85.3891C21.6911 85.3891 21.2282 85.2953 20.822 85.1078C20.4157 84.9203 20.0993 84.6625 19.8727 84.3344C19.6462 84.0063 19.5329 83.6527 19.5329 83.2738H20.9157C20.9352 83.6098 21.0622 83.8695 21.2966 84.0531C21.5309 84.2328 21.8415 84.3227 22.2282 84.3227C22.6032 84.3227 22.8884 84.2523 23.0837 84.1117C23.279 83.9672 23.3766 83.7797 23.3766 83.5492ZM25.7556 82.0434C25.7556 81.4223 25.8786 80.8637 26.1247 80.3676C26.3708 79.8676 26.7165 79.4848 27.1618 79.2191C27.6071 78.9496 28.1188 78.8148 28.697 78.8148C29.5524 78.8148 30.2458 79.0902 30.777 79.641C31.3122 80.1918 31.6013 80.9223 31.6442 81.8324L31.6501 82.1664C31.6501 82.7914 31.529 83.35 31.2868 83.8422C31.0485 84.3344 30.7048 84.7152 30.2556 84.9848C29.8102 85.2543 29.2946 85.3891 28.7087 85.3891C27.8141 85.3891 27.0974 85.0922 26.5583 84.4984C26.0231 83.9008 25.7556 83.1059 25.7556 82.1137V82.0434ZM27.1794 82.1664C27.1794 82.8188 27.3141 83.3305 27.5837 83.7016C27.8532 84.0688 28.2282 84.2523 28.7087 84.2523C29.1891 84.2523 29.5622 84.0648 29.8278 83.6898C30.0974 83.3148 30.2321 82.766 30.2321 82.0434C30.2321 81.4027 30.0934 80.8949 29.8161 80.5199C29.5427 80.1449 29.1696 79.9574 28.697 79.9574C28.2321 79.9574 27.863 80.143 27.5895 80.5141C27.3161 80.8813 27.1794 81.432 27.1794 82.1664ZM32.5876 82.0551C32.5876 81.0785 32.8141 80.2953 33.2673 79.7055C33.7204 79.1117 34.3278 78.8148 35.0895 78.8148C35.7614 78.8148 36.3044 79.0492 36.7184 79.518V76.2719H38.1423V85.2719H36.8532L36.7829 84.6156C36.3571 85.1313 35.7888 85.3891 35.0778 85.3891C34.3356 85.3891 33.7341 85.0902 33.2731 84.4926C32.8161 83.8949 32.5876 83.0824 32.5876 82.0551ZM34.0114 82.1781C34.0114 82.8227 34.1345 83.3266 34.3806 83.6898C34.6306 84.0492 34.9841 84.2289 35.4411 84.2289C36.0231 84.2289 36.4489 83.9691 36.7184 83.4496V80.7426C36.4567 80.2348 36.0349 79.9809 35.4528 79.9809C34.9919 79.9809 34.6364 80.1645 34.3864 80.5316C34.1364 80.8949 34.0114 81.4438 34.0114 82.1781ZM42.4196 85.3891C41.5173 85.3891 40.7849 85.1059 40.2224 84.5395C39.6638 83.9691 39.3845 83.2113 39.3845 82.266V82.0902C39.3845 81.4574 39.5056 80.893 39.7477 80.3969C39.9938 79.8969 40.3376 79.5082 40.779 79.2309C41.2204 78.9535 41.7126 78.8148 42.2556 78.8148C43.1188 78.8148 43.7849 79.0902 44.2536 79.641C44.7263 80.1918 44.9626 80.9711 44.9626 81.9789V82.5531H40.82C40.863 83.0766 41.0368 83.4906 41.3415 83.7953C41.6501 84.1 42.0368 84.2523 42.5016 84.2523C43.154 84.2523 43.6852 83.9887 44.0954 83.4613L44.863 84.1938C44.6091 84.5727 44.2692 84.8676 43.8434 85.0785C43.4216 85.2856 42.947 85.3891 42.4196 85.3891ZM42.2497 79.9574C41.8591 79.9574 41.5427 80.0941 41.3005 80.3676C41.0622 80.641 40.9099 81.0219 40.8434 81.5102H43.5563V81.4047C43.5251 80.9281 43.3981 80.5688 43.1755 80.3266C42.9528 80.0805 42.6442 79.9574 42.2497 79.9574ZM49.6266 83.5492C49.6266 83.2953 49.5212 83.102 49.3102 82.9691C49.1032 82.8363 48.7575 82.7191 48.2731 82.6176C47.7888 82.516 47.3845 82.3871 47.0602 82.2309C46.3493 81.8871 45.9938 81.3891 45.9938 80.7367C45.9938 80.1898 46.2243 79.7328 46.6852 79.3656C47.1462 78.9984 47.7321 78.8148 48.4431 78.8148C49.2009 78.8148 49.8122 79.0023 50.277 79.3773C50.7458 79.7523 50.9802 80.2387 50.9802 80.8363H49.5563C49.5563 80.5629 49.4548 80.3363 49.2516 80.1566C49.0485 79.9731 48.779 79.8813 48.4431 79.8813C48.1306 79.8813 47.8747 79.9535 47.6755 80.0981C47.4802 80.2426 47.3825 80.4359 47.3825 80.6781C47.3825 80.8969 47.4743 81.0668 47.6579 81.1879C47.8415 81.309 48.2126 81.432 48.7712 81.557C49.3298 81.6781 49.7673 81.8246 50.0837 81.9965C50.404 82.1645 50.6403 82.3676 50.7927 82.6059C50.9489 82.8441 51.027 83.1332 51.027 83.4731C51.027 84.0434 50.7907 84.5063 50.3181 84.8617C49.8454 85.2133 49.2263 85.3891 48.4606 85.3891C47.9411 85.3891 47.4782 85.2953 47.072 85.1078C46.6657 84.9203 46.3493 84.6625 46.1227 84.3344C45.8962 84.0063 45.7829 83.6527 45.7829 83.2738H47.1657C47.1852 83.6098 47.3122 83.8695 47.5466 84.0531C47.7809 84.2328 48.0915 84.3227 48.4782 84.3227C48.8532 84.3227 49.1384 84.2523 49.3337 84.1117C49.529 83.9672 49.6266 83.7797 49.6266 83.5492Z" fill="#898F97"/>
</svg>
