<svg width="32" height="31" viewBox="0 0 32 31" fill="none" xmlns="http://www.w3.org/2000/svg">
<circle cx="16.1865" cy="15.5" r="15.5" fill="#459221" fill-opacity="0.15"/>
<path fill-rule="evenodd" clip-rule="evenodd" d="M8.68648 14.9996C8.68648 13.6537 9.59076 12.5997 11.0864 12.5997L13.5447 12.5997L13.5224 12.5392C13.5002 12.479 13.4375 12.3139 13.3767 12.1535L13.3767 12.1535C13.3228 12.0115 13.2704 11.8733 13.2486 11.8149C13.0965 11.4066 12.9855 11.0777 12.8957 10.7519C12.76 10.2596 12.6863 9.81596 12.6863 9.39989C12.6863 8.22234 13.4128 7.49095 14.4876 7.17798C14.9724 7.03682 15.3943 6.99993 15.8862 7L16.2697 7L16.5099 7.29909C16.7812 7.63695 17.3141 8.24586 17.9284 8.94786L17.9284 8.94788L17.9285 8.94792C19.0618 10.243 20.4724 11.8549 21.0296 12.6665C21.1742 12.6235 21.3274 12.6005 21.4859 12.6005L23.0858 12.6005C23.9694 12.6005 24.6858 13.3168 24.6858 14.2004L24.6858 21.4001C24.6858 22.2837 23.9694 23 23.0858 23L21.4859 23C20.9362 23 20.4513 22.7228 20.1633 22.3006C19.9206 22.4575 19.6498 22.5885 19.3555 22.6938C18.6817 22.9349 18.0134 23.009 17.4586 22.9988L11.8863 22.9993C9.68232 22.9993 8.68648 19.7543 8.68648 14.9996ZM18.8165 21.1874C19.5244 20.9342 19.886 20.5212 19.886 19.7994L19.886 14.2004L19.886 14.1997C19.886 14.0075 19.8504 13.8374 19.7726 13.6557C19.6328 13.3293 18.3645 11.8823 17.1624 10.5108L17.1624 10.5108C16.5419 9.80293 15.9391 9.1152 15.5182 8.61203C15.3171 8.62712 15.1275 8.65803 14.9349 8.71411C14.4765 8.84759 14.2862 9.03913 14.2862 9.39989C14.2862 9.65315 14.3375 9.96172 14.4381 10.3267C14.5133 10.5995 14.6107 10.8881 14.7479 11.2563C14.7673 11.3086 14.8159 11.4366 14.8676 11.5728L14.8677 11.5731L14.8684 11.5751C14.9311 11.7403 14.9982 11.917 15.023 11.9842C15.1271 12.2655 15.1956 12.4726 15.2425 12.6608C15.4417 13.4608 15.2418 14.1997 14.2862 14.1997L11.0864 14.1997C10.5334 14.1997 10.2864 14.4876 10.2864 14.9996C10.2864 18.8321 11.0743 21.3994 11.8863 21.3994L17.4861 21.3994L17.5156 21.3998C17.8658 21.4061 18.3575 21.3516 18.8165 21.1874ZM23.0858 21.4001L23.0858 14.2004L21.4859 14.2004L21.4859 21.4001L23.0858 21.4001Z" fill="#459221"/>
</svg>
