<svg width="90" height="42" viewBox="0 0 90 42" fill="none" xmlns="http://www.w3.org/2000/svg">
<path d="M6.39224 29.2496C1.91135 24.6935 1.91134 17.3065 6.39223 12.7504L12.5399 6.49957C17.0207 1.94345 24.2857 1.94344 28.7666 6.49956L34.9142 12.7504C39.3951 17.3065 39.3951 24.6935 34.9142 29.2496L28.7666 35.5004C24.2857 40.0566 17.0207 40.0566 12.5399 35.5004L6.39224 29.2496Z" fill="url(#paint0_linear_148_196)"/>
<path opacity="0.25" d="M6.8844 18.6667C6.8844 12.2233 12.0215 7 18.3584 7H26.9639C33.3009 7 38.438 12.2233 38.438 18.6667V27.4167C38.438 33.86 33.3009 39.0834 26.9639 39.0834H18.3584C12.0215 39.0834 6.8844 33.86 6.8844 27.4167V18.6667Z" fill="#FF334B"/>
<path opacity="0.25" d="M2.86853 14.5833C2.86853 8.13998 8.00563 2.91663 14.3426 2.91663H22.9481C29.285 2.91663 34.4221 8.13998 34.4221 14.5833V23.3333C34.4221 29.7766 29.285 35 22.9481 35H14.3426C8.00563 35 2.86853 29.7766 2.86853 23.3333V14.5833Z" fill="#3369FF"/>
<path d="M27.6547 19.3442C27.3959 19.274 27.1309 19.4249 27.063 19.6814L26.295 22.5829C25.4825 25.6524 22.3005 27.4658 19.2018 26.6253C16.1031 25.7848 14.2432 22.6039 15.0557 19.5345L15.8237 16.633C15.8916 16.3765 15.7367 16.1117 15.4779 16.0415C15.219 15.9712 14.9541 16.1222 14.8862 16.3787L14.1181 19.2802C13.2114 22.7056 15.1572 26.2496 18.4916 27.4101L17.8535 29.8206L15.4287 29.1629C15.1698 29.0927 14.9049 29.2436 14.837 29.5001C14.7691 29.7566 14.9239 30.0214 15.1828 30.0916L20.97 31.6613C21.2288 31.7315 21.4938 31.5805 21.5617 31.3241C21.6296 31.0676 21.4747 30.8028 21.2158 30.7325L18.791 30.0749L19.4291 27.6644C22.89 28.347 26.3257 26.2625 27.2325 22.8371L28.0005 19.9356C28.0685 19.6792 27.9136 19.4144 27.6547 19.3442Z" fill="white"/>
<path d="M23.6577 11.1418L23.0317 10.9721C20.8843 10.3901 18.679 11.6465 18.1158 13.7728L16.4118 20.205C15.8486 22.3313 17.1374 24.5347 19.2847 25.1167L19.9108 25.2864C22.0582 25.8684 24.2635 24.612 24.8267 22.4857L26.5307 16.0535C27.0939 13.9272 25.8051 11.7238 23.6577 11.1418ZM25.2714 17.0062L23.5686 16.5446C23.3092 16.4743 23.0437 16.6256 22.9757 16.8825C22.9076 17.1394 23.0627 17.4046 23.3222 17.4749L25.025 17.9364L24.682 19.2311L22.9792 18.7696C22.7198 18.6993 22.4543 18.8505 22.3863 19.1074C22.3182 19.3643 22.4733 19.6295 22.7328 19.6998L24.4356 20.1613L24.0926 21.4561L22.3898 20.9946C22.1304 20.9243 21.8649 21.0755 21.7969 21.3324C21.7288 21.5893 21.8839 21.8545 22.1434 21.9248L23.8419 22.3852C23.3519 23.9045 21.734 24.7835 20.1573 24.3562L19.5312 24.1865C17.9544 23.7591 16.9878 22.1797 17.3145 20.616L19.013 21.0764C19.2725 21.1467 19.5379 20.9955 19.606 20.7386C19.674 20.4817 19.5189 20.2165 19.2594 20.1462L17.5567 19.6847L17.8996 18.3899L19.6024 18.8514C19.8619 18.9217 20.1273 18.7705 20.1954 18.5136C20.2634 18.2567 20.1083 17.9915 19.8489 17.9212L18.1461 17.4596L18.489 16.165L20.1918 16.6265C20.4513 16.6968 20.7167 16.5456 20.7848 16.2887C20.8528 16.0318 20.6977 15.7665 20.4382 15.6962L18.7355 15.2347L19.0553 14.0274C19.3624 12.8679 20.3131 12.0493 21.4285 11.8445L21.0802 13.1595C21.0121 13.4164 21.1673 13.6816 21.4267 13.7519C21.6861 13.8222 21.9516 13.671 22.0196 13.4141L22.4393 11.8301C22.5545 11.8476 23.6383 12.1413 23.7468 12.1845L23.3272 13.7685C23.2591 14.0254 23.4142 14.2906 23.6737 14.3609C23.9331 14.4312 24.1986 14.28 24.2667 14.0231L24.615 12.7081C25.4797 13.4496 25.8984 14.6393 25.5912 15.7988L25.2714 17.0062Z" fill="white"/>
<path d="M51.0594 18.0037H53.0417L53.4254 18.8327C54.2247 18.1934 55.0187 17.8737 55.8074 17.8737C56.8411 17.8737 57.6031 18.2638 58.0934 19.044C58.5943 19.8243 58.8447 20.935 58.8447 22.3762C58.8447 23.8717 58.6156 24.9932 58.1573 25.741C57.7097 26.4778 56.9264 26.8463 55.8074 26.8463C55.4024 26.8463 54.9867 26.7975 54.5604 26.7C54.1448 26.6025 53.7664 26.4616 53.4254 26.2774V30.5848H51.0594V18.0037ZM55.04 24.8632C55.477 24.8632 55.8233 24.6844 56.0791 24.3268C56.3456 23.9584 56.4788 23.3082 56.4788 22.3762C56.4788 21.4443 56.3509 20.7833 56.0951 20.3932C55.8393 20.0031 55.4876 19.808 55.04 19.808C54.5071 19.808 53.9689 19.9706 53.4254 20.2957V24.4406C53.6279 24.5706 53.873 24.6736 54.1608 24.7494C54.4592 24.8253 54.7523 24.8632 55.04 24.8632Z" fill="white"/>
<path d="M63.7519 26.83C62.6115 26.83 61.727 26.4995 61.0982 25.8385C60.4694 25.1775 60.155 24.0342 60.155 22.4088C60.155 21.2493 60.2935 20.339 60.5706 19.678C60.8477 19.017 61.2527 18.551 61.7856 18.2801C62.3185 18.0092 62.9952 17.8737 63.8158 17.8737C64.8496 17.8737 65.8461 18.0092 66.8053 18.2801V19.6617H64.5512C64.0396 19.6617 63.64 19.7376 63.3522 19.8893C63.0645 20.041 62.8513 20.3119 62.7128 20.702C62.5849 21.0921 62.5209 21.6556 62.5209 22.3925C62.5209 23.1185 62.5849 23.6712 62.7128 24.0505C62.8513 24.4189 63.0645 24.6736 63.3522 24.8144C63.64 24.9445 64.0503 25.0095 64.5832 25.0095H66.9331V26.3749C66.5282 26.5049 66.0326 26.6133 65.4464 26.7C64.8603 26.7867 64.2954 26.83 63.7519 26.83Z" fill="white"/>
<path d="M70.0702 26.83C69.4094 26.83 68.8766 26.635 68.4716 26.2449C68.0772 25.8439 67.8801 25.3021 67.8801 24.6194V23.8392C67.8801 23.1456 68.1145 22.593 68.5835 22.1812C69.0631 21.7694 69.7718 21.5635 70.7096 21.5635H72.8998V20.9621C72.8998 20.6695 72.8518 20.4419 72.7559 20.2794C72.66 20.106 72.4788 19.9814 72.2123 19.9055C71.9459 19.8188 71.5516 19.7755 71.0294 19.7755H68.4556V18.3776C69.5107 18.0525 70.6564 17.89 71.8926 17.89C73.0223 17.89 73.8643 18.1067 74.4184 18.5402C74.9833 18.9736 75.2657 19.7267 75.2657 20.7995V26.7325H73.3953L73.0117 25.806C72.8944 25.9252 72.6866 26.066 72.3882 26.2286C72.0898 26.3911 71.7328 26.532 71.3171 26.6512C70.9121 26.7704 70.4965 26.83 70.0702 26.83ZM71.3011 25.1558C71.5463 25.1558 71.85 25.1016 72.2123 24.9932C72.5747 24.874 72.8038 24.7874 72.8998 24.7332V22.7013L71.461 22.7989C70.651 22.8639 70.246 23.2215 70.246 23.8717V24.2293C70.246 24.847 70.5977 25.1558 71.3011 25.1558Z" fill="white"/>
<path d="M80.1544 26.83C79.5682 26.83 78.9501 26.7975 78.3 26.7325C77.6605 26.6566 77.1703 26.5591 76.8292 26.4399V25.0258H80.634C80.9857 25.0258 81.2361 24.977 81.3853 24.8795C81.5345 24.7819 81.6091 24.5923 81.6091 24.3105V24.0342C81.6091 23.8067 81.5345 23.6387 81.3853 23.5303C81.2468 23.4111 80.9963 23.3515 80.634 23.3515H79.2911C78.4918 23.3515 77.8577 23.1673 77.3888 22.7989C76.9198 22.4196 76.6854 21.8128 76.6854 20.9783V20.4745C76.6854 19.6075 76.9412 18.9682 77.4527 18.5564C77.9749 18.1338 78.8702 17.9225 80.1384 17.9225C80.6606 17.9225 81.2308 17.9658 81.8489 18.0525C82.4671 18.1284 82.936 18.2205 83.2557 18.3288V19.743H79.6588C79.3284 19.743 79.0886 19.7972 78.9394 19.9055C78.7902 20.0139 78.7156 20.2035 78.7156 20.4745V20.7345C78.7156 21.0054 78.7956 21.1897 78.9554 21.2872C79.1153 21.3739 79.3817 21.4172 79.7547 21.4172H81.1295C81.9821 21.4172 82.6109 21.6177 83.0159 22.0186C83.4316 22.4088 83.6394 22.9723 83.6394 23.7091V24.4894C83.6394 25.3454 83.3516 25.9523 82.7761 26.3099C82.2006 26.6566 81.3267 26.83 80.1544 26.83Z" fill="white"/>
<path d="M88.3694 26.7325C87.698 26.7325 87.1598 26.635 86.7548 26.4399C86.3498 26.2449 86.0568 25.9198 85.8756 25.4646C85.6944 25.0095 85.6145 24.3972 85.6358 23.6279L85.7157 19.9381H84.3729V18.3939L85.7956 18.0037L86.1154 15.5656H87.9858V18.0037H90V19.9381H87.9858V23.6116C87.9858 24.0451 88.0604 24.3485 88.2096 24.5219C88.3588 24.6952 88.5666 24.8036 88.833 24.847L89.9201 24.9445V26.7325H88.3694Z" fill="white"/>
<defs>
<linearGradient id="paint0_linear_148_196" x1="20.6265" y1="-1.72285" x2="20.6265" y2="43.7772" gradientUnits="userSpaceOnUse">
<stop stop-color="#FF334B"/>
<stop offset="0.46875" stop-color="#C600F9"/>
<stop offset="1" stop-color="#3369FF"/>
</linearGradient>
</defs>
</svg>
