<svg width="57" height="91" viewBox="0 0 57 91" fill="none" xmlns="http://www.w3.org/2000/svg">
<circle cx="28.0095" cy="28.2719" r="28" fill="#19232F"/>
<circle cx="28.0095" cy="28.2719" r="28" fill="url(#paint0_linear_23_610)" fill-opacity="0.25"/>
<circle cx="28.0095" cy="28.2719" r="28" fill="white" fill-opacity="0.1"/>
<path fill-rule="evenodd" clip-rule="evenodd" d="M28.0094 17.2719C30.2186 17.2719 32.0094 19.0627 32.0094 21.2719V28.2719C32.0094 30.481 30.2186 32.2719 28.0094 32.2719C25.8003 32.2719 24.0094 30.481 24.0094 28.2719V21.2719C24.0094 19.0627 25.8003 17.2719 28.0094 17.2719ZM29.0095 36.21V37.2719H32.0095V39.2719H24.0095V37.2719H27.0095V36.21C23.0631 35.7179 20.0095 32.3515 20.0095 28.2719V26.2719H22.0095V28.2719C22.0095 31.5856 24.6958 34.2719 28.0095 34.2719C31.3232 34.2719 34.0095 31.5856 34.0095 28.2719V26.2719H36.0095V28.2719C36.0095 32.3515 32.9558 35.7179 29.0095 36.21ZM26.0095 21.2719C26.0095 20.1673 26.9049 19.2719 28.0095 19.2719C29.114 19.2719 30.0095 20.1673 30.0095 21.2719V28.2719C30.0095 29.3765 29.114 30.2719 28.0095 30.2719C26.9049 30.2719 26.0095 29.3765 26.0095 28.2719V21.2719Z" fill="white"/>
<path d="M5.67548 82.102V85.2719H4.19305V76.7406H7.45673C8.40985 76.7406 9.16571 76.9887 9.7243 77.4848C10.2868 77.9809 10.5681 78.6371 10.5681 79.4535C10.5681 80.2895 10.2927 80.9398 9.74188 81.4047C9.19501 81.8695 8.42743 82.102 7.43915 82.102H5.67548ZM5.67548 80.9125H7.45673C7.98407 80.9125 8.38641 80.7895 8.66376 80.5434C8.9411 80.2934 9.07977 79.934 9.07977 79.4652C9.07977 79.0043 8.93915 78.6371 8.6579 78.3637C8.37665 78.0863 7.98993 77.9438 7.49774 77.9359H5.67548V80.9125ZM11.3825 82.0434C11.3825 81.4223 11.5056 80.8637 11.7516 80.3676C11.9977 79.8676 12.3434 79.4848 12.7888 79.2191C13.2341 78.9496 13.7458 78.8148 14.3239 78.8148C15.1794 78.8148 15.8727 79.0902 16.404 79.641C16.9391 80.1918 17.2282 80.9223 17.2712 81.8324L17.277 82.1664C17.277 82.7914 17.1559 83.35 16.9138 83.8422C16.6755 84.3344 16.3317 84.7152 15.8825 84.9848C15.4372 85.2543 14.9216 85.3891 14.3356 85.3891C13.4411 85.3891 12.7243 85.0922 12.1852 84.4984C11.6501 83.9008 11.3825 83.1059 11.3825 82.1137V82.0434ZM12.8063 82.1664C12.8063 82.8188 12.9411 83.3305 13.2106 83.7016C13.4802 84.0688 13.8552 84.2523 14.3356 84.2523C14.8161 84.2523 15.1891 84.0648 15.4548 83.6898C15.7243 83.3148 15.8591 82.766 15.8591 82.0434C15.8591 81.4027 15.7204 80.8949 15.4431 80.5199C15.1696 80.1449 14.7966 79.9574 14.3239 79.9574C13.8591 79.9574 13.4899 80.143 13.2165 80.5141C12.9431 80.8813 12.8063 81.432 12.8063 82.1664ZM18.2145 82.0551C18.2145 81.0785 18.4411 80.2953 18.8942 79.7055C19.3474 79.1117 19.9548 78.8148 20.7165 78.8148C21.3884 78.8148 21.9313 79.0492 22.3454 79.518V76.2719H23.7692V85.2719H22.4802L22.4099 84.6156C21.9841 85.1313 21.4157 85.3891 20.7048 85.3891C19.9626 85.3891 19.361 85.0902 18.9001 84.4926C18.4431 83.8949 18.2145 83.0824 18.2145 82.0551ZM19.6384 82.1781C19.6384 82.8227 19.7614 83.3266 20.0075 83.6898C20.2575 84.0492 20.611 84.2289 21.0681 84.2289C21.6501 84.2289 22.0759 83.9691 22.3454 83.4496V80.7426C22.0837 80.2348 21.6618 79.9809 21.0798 79.9809C20.6188 79.9809 20.2634 80.1645 20.0134 80.5316C19.7634 80.8949 19.6384 81.4438 19.6384 82.1781ZM27.8591 84.2523C28.2145 84.2523 28.5095 84.1488 28.7438 83.9418C28.9782 83.7348 29.1032 83.4789 29.1188 83.1742H30.4606C30.445 83.5688 30.322 83.9379 30.0915 84.2816C29.861 84.6215 29.5485 84.891 29.154 85.0902C28.7595 85.2895 28.3337 85.3891 27.8766 85.3891C26.9899 85.3891 26.2868 85.102 25.7673 84.5277C25.2477 83.9535 24.988 83.1606 24.988 82.1488V82.0023C24.988 81.0375 25.2458 80.266 25.7614 79.6879C26.277 79.1059 26.9802 78.8148 27.8708 78.8148C28.6247 78.8148 29.238 79.0356 29.7106 79.477C30.1872 79.9145 30.4372 80.4906 30.4606 81.2055H29.1188C29.1032 80.8422 28.9782 80.5434 28.7438 80.309C28.5134 80.0746 28.2184 79.9574 27.8591 79.9574C27.3981 79.9574 27.0427 80.1254 26.7927 80.4613C26.5427 80.7934 26.4157 81.2992 26.4118 81.9789V82.2074C26.4118 82.8949 26.5349 83.4086 26.7809 83.7484C27.0309 84.0844 27.3903 84.2523 27.8591 84.2523ZM35.3239 85.2719C35.2614 85.1508 35.2067 84.9535 35.1599 84.6801C34.7067 85.1527 34.152 85.3891 33.4958 85.3891C32.8591 85.3891 32.3395 85.2074 31.9372 84.8441C31.5349 84.4809 31.3337 84.0316 31.3337 83.4965C31.3337 82.8207 31.5837 82.3031 32.0837 81.9438C32.5876 81.5805 33.3063 81.3988 34.2399 81.3988H35.113V80.9828C35.113 80.6547 35.0212 80.393 34.8376 80.1977C34.654 79.9984 34.3747 79.8988 33.9997 79.8988C33.6755 79.8988 33.4099 79.9809 33.2028 80.1449C32.9958 80.3051 32.8923 80.5102 32.8923 80.7602H31.4684C31.4684 80.4125 31.5837 80.0883 31.8141 79.7875C32.0446 79.4828 32.3571 79.2445 32.7516 79.0727C33.1501 78.9008 33.5934 78.8148 34.0817 78.8148C34.8239 78.8148 35.4157 79.0023 35.8571 79.3773C36.2985 79.7484 36.5251 80.2719 36.5368 80.9477V83.807C36.5368 84.3773 36.6169 84.8324 36.777 85.1723V85.2719H35.3239ZM33.7595 84.2465C34.0407 84.2465 34.3044 84.1781 34.5505 84.0414C34.8005 83.9047 34.988 83.7211 35.113 83.4906V82.2953H34.3454C33.8181 82.2953 33.4216 82.3871 33.1559 82.5707C32.8903 82.7543 32.7575 83.0141 32.7575 83.35C32.7575 83.6234 32.8474 83.8422 33.027 84.0063C33.2106 84.1664 33.4548 84.2465 33.7595 84.2465ZM41.5817 83.5492C41.5817 83.2953 41.4763 83.102 41.2653 82.9691C41.0583 82.8363 40.7126 82.7191 40.2282 82.6176C39.7438 82.516 39.3395 82.3871 39.0153 82.2309C38.3044 81.8871 37.9489 81.3891 37.9489 80.7367C37.9489 80.1898 38.1794 79.7328 38.6403 79.3656C39.1013 78.9984 39.6872 78.8148 40.3981 78.8148C41.1559 78.8148 41.7673 79.0023 42.2321 79.3773C42.7009 79.7523 42.9352 80.2387 42.9352 80.8363H41.5114C41.5114 80.5629 41.4099 80.3363 41.2067 80.1566C41.0036 79.9731 40.7341 79.8813 40.3981 79.8813C40.0856 79.8813 39.8298 79.9535 39.6306 80.0981C39.4352 80.2426 39.3376 80.4359 39.3376 80.6781C39.3376 80.8969 39.4294 81.0668 39.613 81.1879C39.7966 81.309 40.1677 81.432 40.7263 81.557C41.2849 81.6781 41.7224 81.8246 42.0388 81.9965C42.3591 82.1645 42.5954 82.3676 42.7477 82.6059C42.904 82.8441 42.9821 83.1332 42.9821 83.4731C42.9821 84.0434 42.7458 84.5063 42.2731 84.8617C41.8005 85.2133 41.1813 85.3891 40.4157 85.3891C39.8962 85.3891 39.4333 85.2953 39.027 85.1078C38.6208 84.9203 38.3044 84.6625 38.0778 84.3344C37.8513 84.0063 37.738 83.6527 37.738 83.2738H39.1208C39.1403 83.6098 39.2673 83.8695 39.5016 84.0531C39.736 84.2328 40.0466 84.3227 40.4333 84.3227C40.8083 84.3227 41.0934 84.2523 41.2888 84.1117C41.4841 83.9672 41.5817 83.7797 41.5817 83.5492ZM46.0114 77.391V78.932H47.1306V79.9867H46.0114V83.5258C46.0114 83.768 46.0583 83.9438 46.152 84.0531C46.2497 84.1586 46.4216 84.2113 46.6677 84.2113C46.8317 84.2113 46.9977 84.1918 47.1657 84.1527V85.2543C46.8415 85.3441 46.529 85.3891 46.2282 85.3891C45.1345 85.3891 44.5876 84.7856 44.5876 83.5785V79.9867H43.5446V78.932H44.5876V77.391H46.0114ZM51.777 83.5492C51.777 83.2953 51.6716 83.102 51.4606 82.9691C51.2536 82.8363 50.9079 82.7191 50.4235 82.6176C49.9391 82.516 49.5349 82.3871 49.2106 82.2309C48.4997 81.8871 48.1442 81.3891 48.1442 80.7367C48.1442 80.1898 48.3747 79.7328 48.8356 79.3656C49.2966 78.9984 49.8825 78.8148 50.5934 78.8148C51.3513 78.8148 51.9626 79.0023 52.4274 79.3773C52.8962 79.7523 53.1306 80.2387 53.1306 80.8363H51.7067C51.7067 80.5629 51.6052 80.3363 51.402 80.1566C51.1989 79.9731 50.9294 79.8813 50.5934 79.8813C50.2809 79.8813 50.0251 79.9535 49.8259 80.0981C49.6306 80.2426 49.5329 80.4359 49.5329 80.6781C49.5329 80.8969 49.6247 81.0668 49.8083 81.1879C49.9919 81.309 50.363 81.432 50.9216 81.557C51.4802 81.6781 51.9177 81.8246 52.2341 81.9965C52.5544 82.1645 52.7907 82.3676 52.9431 82.6059C53.0993 82.8441 53.1774 83.1332 53.1774 83.4731C53.1774 84.0434 52.9411 84.5063 52.4684 84.8617C51.9958 85.2133 51.3766 85.3891 50.611 85.3891C50.0915 85.3891 49.6286 85.2953 49.2224 85.1078C48.8161 84.9203 48.4997 84.6625 48.2731 84.3344C48.0466 84.0063 47.9333 83.6527 47.9333 83.2738H49.3161C49.3356 83.6098 49.4626 83.8695 49.697 84.0531C49.9313 84.2328 50.2419 84.3227 50.6286 84.3227C51.0036 84.3227 51.2888 84.2523 51.4841 84.1117C51.6794 83.9672 51.777 83.7797 51.777 83.5492Z" fill="white"/>
<defs>
<linearGradient id="paint0_linear_23_610" x1="28.0095" y1="0.271881" x2="28.0095" y2="56.2719" gradientUnits="userSpaceOnUse">
<stop stop-color="#91BEE4"/>
<stop offset="1" stop-color="white" stop-opacity="0"/>
</linearGradient>
</defs>
</svg>
