<svg width="57" height="91" viewBox="0 0 57 91" fill="none" xmlns="http://www.w3.org/2000/svg">
<circle cx="28.0095" cy="28.2719" r="28" fill="#19232F"/>
<path fill-rule="evenodd" clip-rule="evenodd" d="M28.0094 17.2719C30.2186 17.2719 32.0094 19.0627 32.0094 21.2719V28.2719C32.0094 30.481 30.2186 32.2719 28.0094 32.2719C25.8003 32.2719 24.0094 30.481 24.0094 28.2719V21.2719C24.0094 19.0627 25.8003 17.2719 28.0094 17.2719ZM29.0095 36.21V37.2719H32.0095V39.2719H24.0095V37.2719H27.0095V36.21C23.0631 35.7179 20.0095 32.3515 20.0095 28.2719V26.2719H22.0095V28.2719C22.0095 31.5856 24.6958 34.2719 28.0095 34.2719C31.3232 34.2719 34.0095 31.5856 34.0095 28.2719V26.2719H36.0095V28.2719C36.0095 32.3515 32.9558 35.7179 29.0095 36.21ZM26.0095 21.2719C26.0095 20.1673 26.9049 19.2719 28.0095 19.2719C29.114 19.2719 30.0095 20.1673 30.0095 21.2719V28.2719C30.0095 29.3765 29.114 30.2719 28.0095 30.2719C26.9049 30.2719 26.0095 29.3765 26.0095 28.2719V21.2719Z" fill="#898F97"/>
<path d="M4.67548 82.102V85.2719H3.19305V76.7406H6.45673C7.40985 76.7406 8.16571 76.9887 8.7243 77.4848C9.2868 77.9809 9.56805 78.6371 9.56805 79.4535C9.56805 80.2895 9.29266 80.9398 8.74188 81.4047C8.19501 81.8695 7.42743 82.102 6.43915 82.102H4.67548ZM4.67548 80.9125H6.45673C6.98407 80.9125 7.38641 80.7895 7.66376 80.5434C7.9411 80.2934 8.07977 79.934 8.07977 79.4652C8.07977 79.0043 7.93915 78.6371 7.6579 78.3637C7.37665 78.0863 6.98993 77.9438 6.49774 77.9359H4.67548V80.9125ZM10.3825 82.0434C10.3825 81.4223 10.5056 80.8637 10.7516 80.3676C10.9977 79.8676 11.3434 79.4848 11.7888 79.2191C12.2341 78.9496 12.7458 78.8148 13.3239 78.8148C14.1794 78.8148 14.8727 79.0902 15.404 79.641C15.9391 80.1918 16.2282 80.9223 16.2712 81.8324L16.277 82.1664C16.277 82.7914 16.1559 83.35 15.9138 83.8422C15.6755 84.3344 15.3317 84.7152 14.8825 84.9848C14.4372 85.2543 13.9216 85.3891 13.3356 85.3891C12.4411 85.3891 11.7243 85.0922 11.1852 84.4984C10.6501 83.9008 10.3825 83.1059 10.3825 82.1137V82.0434ZM11.8063 82.1664C11.8063 82.8188 11.9411 83.3305 12.2106 83.7016C12.4802 84.0688 12.8552 84.2523 13.3356 84.2523C13.8161 84.2523 14.1891 84.0648 14.4548 83.6898C14.7243 83.3148 14.8591 82.766 14.8591 82.0434C14.8591 81.4027 14.7204 80.8949 14.4431 80.5199C14.1696 80.1449 13.7966 79.9574 13.3239 79.9574C12.8591 79.9574 12.4899 80.143 12.2165 80.5141C11.9431 80.8813 11.8063 81.432 11.8063 82.1664ZM17.2145 82.0551C17.2145 81.0785 17.4411 80.2953 17.8942 79.7055C18.3474 79.1117 18.9548 78.8148 19.7165 78.8148C20.3884 78.8148 20.9313 79.0492 21.3454 79.518V76.2719H22.7692V85.2719H21.4802L21.4099 84.6156C20.9841 85.1313 20.4157 85.3891 19.7048 85.3891C18.9626 85.3891 18.361 85.0902 17.9001 84.4926C17.4431 83.8949 17.2145 83.0824 17.2145 82.0551ZM18.6384 82.1781C18.6384 82.8227 18.7614 83.3266 19.0075 83.6898C19.2575 84.0492 19.611 84.2289 20.0681 84.2289C20.6501 84.2289 21.0759 83.9691 21.3454 83.4496V80.7426C21.0837 80.2348 20.6618 79.9809 20.0798 79.9809C19.6188 79.9809 19.2634 80.1645 19.0134 80.5316C18.7634 80.8949 18.6384 81.4438 18.6384 82.1781ZM26.8591 84.2523C27.2145 84.2523 27.5095 84.1488 27.7438 83.9418C27.9782 83.7348 28.1032 83.4789 28.1188 83.1742H29.4606C29.445 83.5688 29.322 83.9379 29.0915 84.2816C28.861 84.6215 28.5485 84.891 28.154 85.0902C27.7595 85.2895 27.3337 85.3891 26.8766 85.3891C25.9899 85.3891 25.2868 85.102 24.7673 84.5277C24.2477 83.9535 23.988 83.1606 23.988 82.1488V82.0023C23.988 81.0375 24.2458 80.266 24.7614 79.6879C25.277 79.1059 25.9802 78.8148 26.8708 78.8148C27.6247 78.8148 28.238 79.0356 28.7106 79.477C29.1872 79.9145 29.4372 80.4906 29.4606 81.2055H28.1188C28.1032 80.8422 27.9782 80.5434 27.7438 80.309C27.5134 80.0746 27.2184 79.9574 26.8591 79.9574C26.3981 79.9574 26.0427 80.1254 25.7927 80.4613C25.5427 80.7934 25.4157 81.2992 25.4118 81.9789V82.2074C25.4118 82.8949 25.5349 83.4086 25.7809 83.7484C26.0309 84.0844 26.3903 84.2523 26.8591 84.2523ZM34.3239 85.2719C34.2614 85.1508 34.2067 84.9535 34.1599 84.6801C33.7067 85.1527 33.152 85.3891 32.4958 85.3891C31.8591 85.3891 31.3395 85.2074 30.9372 84.8441C30.5349 84.4809 30.3337 84.0316 30.3337 83.4965C30.3337 82.8207 30.5837 82.3031 31.0837 81.9438C31.5876 81.5805 32.3063 81.3988 33.2399 81.3988H34.113V80.9828C34.113 80.6547 34.0212 80.393 33.8376 80.1977C33.654 79.9984 33.3747 79.8988 32.9997 79.8988C32.6755 79.8988 32.4099 79.9809 32.2028 80.1449C31.9958 80.3051 31.8923 80.5102 31.8923 80.7602H30.4684C30.4684 80.4125 30.5837 80.0883 30.8141 79.7875C31.0446 79.4828 31.3571 79.2445 31.7516 79.0727C32.1501 78.9008 32.5934 78.8148 33.0817 78.8148C33.8239 78.8148 34.4157 79.0023 34.8571 79.3773C35.2985 79.7484 35.5251 80.2719 35.5368 80.9477V83.807C35.5368 84.3773 35.6169 84.8324 35.777 85.1723V85.2719H34.3239ZM32.7595 84.2465C33.0407 84.2465 33.3044 84.1781 33.5505 84.0414C33.8005 83.9047 33.988 83.7211 34.113 83.4906V82.2953H33.3454C32.8181 82.2953 32.4216 82.3871 32.1559 82.5707C31.8903 82.7543 31.7575 83.0141 31.7575 83.35C31.7575 83.6234 31.8474 83.8422 32.027 84.0063C32.2106 84.1664 32.4548 84.2465 32.7595 84.2465ZM40.5817 83.5492C40.5817 83.2953 40.4763 83.102 40.2653 82.9691C40.0583 82.8363 39.7126 82.7191 39.2282 82.6176C38.7438 82.516 38.3395 82.3871 38.0153 82.2309C37.3044 81.8871 36.9489 81.3891 36.9489 80.7367C36.9489 80.1898 37.1794 79.7328 37.6403 79.3656C38.1013 78.9984 38.6872 78.8148 39.3981 78.8148C40.1559 78.8148 40.7673 79.0023 41.2321 79.3773C41.7009 79.7523 41.9352 80.2387 41.9352 80.8363H40.5114C40.5114 80.5629 40.4099 80.3363 40.2067 80.1566C40.0036 79.9731 39.7341 79.8813 39.3981 79.8813C39.0856 79.8813 38.8298 79.9535 38.6306 80.0981C38.4352 80.2426 38.3376 80.4359 38.3376 80.6781C38.3376 80.8969 38.4294 81.0668 38.613 81.1879C38.7966 81.309 39.1677 81.432 39.7263 81.557C40.2849 81.6781 40.7224 81.8246 41.0388 81.9965C41.3591 82.1645 41.5954 82.3676 41.7477 82.6059C41.904 82.8441 41.9821 83.1332 41.9821 83.4731C41.9821 84.0434 41.7458 84.5063 41.2731 84.8617C40.8005 85.2133 40.1813 85.3891 39.4157 85.3891C38.8962 85.3891 38.4333 85.2953 38.027 85.1078C37.6208 84.9203 37.3044 84.6625 37.0778 84.3344C36.8513 84.0063 36.738 83.6527 36.738 83.2738H38.1208C38.1403 83.6098 38.2673 83.8695 38.5016 84.0531C38.736 84.2328 39.0466 84.3227 39.4333 84.3227C39.8083 84.3227 40.0934 84.2523 40.2888 84.1117C40.4841 83.9672 40.5817 83.7797 40.5817 83.5492ZM45.0114 77.391V78.932H46.1306V79.9867H45.0114V83.5258C45.0114 83.768 45.0583 83.9438 45.152 84.0531C45.2497 84.1586 45.4216 84.2113 45.6677 84.2113C45.8317 84.2113 45.9977 84.1918 46.1657 84.1527V85.2543C45.8415 85.3441 45.529 85.3891 45.2282 85.3891C44.1345 85.3891 43.5876 84.7856 43.5876 83.5785V79.9867H42.5446V78.932H43.5876V77.391H45.0114ZM50.777 83.5492C50.777 83.2953 50.6716 83.102 50.4606 82.9691C50.2536 82.8363 49.9079 82.7191 49.4235 82.6176C48.9391 82.516 48.5349 82.3871 48.2106 82.2309C47.4997 81.8871 47.1442 81.3891 47.1442 80.7367C47.1442 80.1898 47.3747 79.7328 47.8356 79.3656C48.2966 78.9984 48.8825 78.8148 49.5934 78.8148C50.3513 78.8148 50.9626 79.0023 51.4274 79.3773C51.8962 79.7523 52.1306 80.2387 52.1306 80.8363H50.7067C50.7067 80.5629 50.6052 80.3363 50.402 80.1566C50.1989 79.9731 49.9294 79.8813 49.5934 79.8813C49.2809 79.8813 49.0251 79.9535 48.8259 80.0981C48.6306 80.2426 48.5329 80.4359 48.5329 80.6781C48.5329 80.8969 48.6247 81.0668 48.8083 81.1879C48.9919 81.309 49.363 81.432 49.9216 81.557C50.4802 81.6781 50.9177 81.8246 51.2341 81.9965C51.5544 82.1645 51.7907 82.3676 51.9431 82.6059C52.0993 82.8441 52.1774 83.1332 52.1774 83.4731C52.1774 84.0434 51.9411 84.5063 51.4684 84.8617C50.9958 85.2133 50.3766 85.3891 49.611 85.3891C49.0915 85.3891 48.6286 85.2953 48.2224 85.1078C47.8161 84.9203 47.4997 84.6625 47.2731 84.3344C47.0466 84.0063 46.9333 83.6527 46.9333 83.2738H48.3161C48.3356 83.6098 48.4626 83.8695 48.697 84.0531C48.9313 84.2328 49.2419 84.3227 49.6286 84.3227C50.0036 84.3227 50.2888 84.2523 50.4841 84.1117C50.6794 83.9672 50.777 83.7797 50.777 83.5492Z" fill="#898F97"/>
</svg>
