<svg width="57" height="91" viewBox="0 0 57 91" fill="none" xmlns="http://www.w3.org/2000/svg">
<circle cx="28.0095" cy="28.2719" r="28" fill="#19232F"/>
<path fill-rule="evenodd" clip-rule="evenodd" d="M39.0095 28.2719C39.0095 22.1967 34.0846 17.2719 28.0095 17.2719C21.9343 17.2719 17.0095 22.1967 17.0095 28.2719C17.0095 34.347 21.9343 39.2719 28.0095 39.2719C34.0846 39.2719 39.0095 34.347 39.0095 28.2719ZM19.0095 28.2719C19.0095 24.4836 21.3501 21.2419 24.664 19.9142C23.615 21.9392 23.0095 24.9442 23.0095 28.2719C23.0095 31.5995 23.615 34.6046 24.664 36.6296C21.3501 35.3018 19.0095 32.0602 19.0095 28.2719ZM33.0095 28.2719C33.0095 31.5995 32.4039 34.6046 31.3549 36.6296C34.6689 35.3019 37.0095 32.0602 37.0095 28.2719C37.0095 24.4836 34.6689 21.2419 31.3549 19.9142C32.4039 21.9392 33.0095 24.9442 33.0095 28.2719ZM25.0095 28.2719C25.0095 23.2559 26.6031 19.2719 28.0095 19.2719C29.4159 19.2719 31.0095 23.2559 31.0095 28.2719C31.0095 33.2879 29.4159 37.2719 28.0095 37.2719C26.6031 37.2719 25.0095 33.2879 25.0095 28.2719Z" fill="#898F97"/>
<path fill-rule="evenodd" clip-rule="evenodd" d="M37.0724 26.9225L38.9464 27.6212C38.2047 29.6106 33.3231 31.2719 28.0094 31.2719C22.2865 31.2719 17.7335 29.8421 17.0513 27.5581L18.9676 26.9856C19.0837 27.3743 19.9497 27.9584 21.4177 28.4194C23.1439 28.9615 25.451 29.2719 28.0094 29.2719C32.5568 29.2719 36.7254 27.8532 37.0724 26.9225Z" fill="#898F97"/>
<path d="M16.4333 77.9359H13.7731V85.2719H12.3024V77.9359H9.66571V76.7406H16.4333V77.9359ZM15.9352 82.0434C15.9352 81.4223 16.0583 80.8637 16.3044 80.3676C16.5505 79.8676 16.8962 79.4848 17.3415 79.2191C17.7868 78.9496 18.2985 78.8148 18.8766 78.8148C19.7321 78.8148 20.4255 79.0902 20.9567 79.641C21.4919 80.1918 21.7809 80.9223 21.8239 81.8324L21.8298 82.1664C21.8298 82.7914 21.7087 83.35 21.4665 83.8422C21.2282 84.3344 20.8845 84.7152 20.4352 84.9848C19.9899 85.2543 19.4743 85.3891 18.8884 85.3891C17.9938 85.3891 17.277 85.0922 16.738 84.4984C16.2028 83.9008 15.9352 83.1059 15.9352 82.1137V82.0434ZM17.3591 82.1664C17.3591 82.8188 17.4938 83.3305 17.7634 83.7016C18.0329 84.0688 18.4079 84.2523 18.8884 84.2523C19.3688 84.2523 19.7419 84.0648 20.0075 83.6898C20.277 83.3148 20.4118 82.766 20.4118 82.0434C20.4118 81.4027 20.2731 80.8949 19.9958 80.5199C19.7224 80.1449 19.3493 79.9574 18.8766 79.9574C18.4118 79.9574 18.0427 80.143 17.7692 80.5141C17.4958 80.8813 17.3591 81.432 17.3591 82.1664ZM28.5856 82.1664C28.5856 83.1469 28.363 83.9301 27.9177 84.516C27.4724 85.0981 26.8747 85.3891 26.1247 85.3891C25.4294 85.3891 24.8727 85.1606 24.4548 84.7035V87.7094H23.0309V78.932H24.3434L24.402 79.5766C24.82 79.0688 25.3884 78.8148 26.1071 78.8148C26.8806 78.8148 27.486 79.1039 27.9235 79.682C28.3649 80.2563 28.5856 81.0551 28.5856 82.0785V82.1664ZM27.1677 82.0434C27.1677 81.4106 27.0407 80.9086 26.7868 80.5375C26.5368 80.1664 26.1774 79.9809 25.7087 79.9809C25.1266 79.9809 24.7087 80.2211 24.4548 80.7016V83.5141C24.7126 84.0063 25.1345 84.2523 25.7204 84.2523C26.1735 84.2523 26.527 84.0707 26.7809 83.7074C27.0388 83.3402 27.1677 82.7856 27.1677 82.0434ZM31.3102 85.2719H29.8864V78.932H31.3102V85.2719ZM29.7985 77.2856C29.7985 77.0668 29.8669 76.8852 30.0036 76.7406C30.1442 76.5961 30.3434 76.5238 30.6013 76.5238C30.8591 76.5238 31.0583 76.5961 31.1989 76.7406C31.3395 76.8852 31.4099 77.0668 31.4099 77.2856C31.4099 77.5004 31.3395 77.6801 31.1989 77.8246C31.0583 77.9652 30.8591 78.0356 30.6013 78.0356C30.3434 78.0356 30.1442 77.9652 30.0036 77.8246C29.8669 77.6801 29.7985 77.5004 29.7985 77.2856ZM35.4704 84.2523C35.8259 84.2523 36.1208 84.1488 36.3552 83.9418C36.5895 83.7348 36.7145 83.4789 36.7302 83.1742H38.072C38.0563 83.5688 37.9333 83.9379 37.7028 84.2816C37.4724 84.6215 37.1599 84.891 36.7653 85.0902C36.3708 85.2895 35.945 85.3891 35.488 85.3891C34.6013 85.3891 33.8981 85.102 33.3786 84.5277C32.8591 83.9535 32.5993 83.1606 32.5993 82.1488V82.0023C32.5993 81.0375 32.8571 80.266 33.3727 79.6879C33.8884 79.1059 34.5915 78.8148 35.4821 78.8148C36.236 78.8148 36.8493 79.0356 37.322 79.477C37.7985 79.9145 38.0485 80.4906 38.072 81.2055H36.7302C36.7145 80.8422 36.5895 80.5434 36.3552 80.309C36.1247 80.0746 35.8298 79.9574 35.4704 79.9574C35.0095 79.9574 34.654 80.1254 34.404 80.4613C34.154 80.7934 34.027 81.2992 34.0231 81.9789V82.2074C34.0231 82.8949 34.1462 83.4086 34.3923 83.7484C34.6423 84.0844 35.0016 84.2523 35.4704 84.2523ZM42.7009 83.5492C42.7009 83.2953 42.5954 83.102 42.3845 82.9691C42.1774 82.8363 41.8317 82.7191 41.3474 82.6176C40.863 82.516 40.4587 82.3871 40.1345 82.2309C39.4235 81.8871 39.0681 81.3891 39.0681 80.7367C39.0681 80.1898 39.2985 79.7328 39.7595 79.3656C40.2204 78.9984 40.8063 78.8148 41.5173 78.8148C42.2751 78.8148 42.8864 79.0023 43.3513 79.3773C43.82 79.7523 44.0544 80.2387 44.0544 80.8363H42.6306C42.6306 80.5629 42.529 80.3363 42.3259 80.1566C42.1227 79.9731 41.8532 79.8813 41.5173 79.8813C41.2048 79.8813 40.9489 79.9535 40.7497 80.0981C40.5544 80.2426 40.4567 80.4359 40.4567 80.6781C40.4567 80.8969 40.5485 81.0668 40.7321 81.1879C40.9157 81.309 41.2868 81.432 41.8454 81.557C42.404 81.6781 42.8415 81.8246 43.1579 81.9965C43.4782 82.1645 43.7145 82.3676 43.8669 82.6059C44.0231 82.8441 44.1013 83.1332 44.1013 83.4731C44.1013 84.0434 43.8649 84.5063 43.3923 84.8617C42.9196 85.2133 42.3005 85.3891 41.5349 85.3891C41.0153 85.3891 40.5524 85.2953 40.1462 85.1078C39.7399 84.9203 39.4235 84.6625 39.197 84.3344C38.9704 84.0063 38.8571 83.6527 38.8571 83.2738H40.2399C40.2595 83.6098 40.3864 83.8695 40.6208 84.0531C40.8552 84.2328 41.1657 84.3227 41.5524 84.3227C41.9274 84.3227 42.2126 84.2523 42.4079 84.1117C42.6032 83.9672 42.7009 83.7797 42.7009 83.5492Z" fill="#898F97"/>
</svg>
