<svg width="57" height="91" viewBox="0 0 57 91" fill="none" xmlns="http://www.w3.org/2000/svg">
<circle cx="28.0095" cy="28.2719" r="28" fill="#19232F"/>
<circle cx="28.0095" cy="28.2719" r="28" fill="url(#paint0_linear_23_435)" fill-opacity="0.25"/>
<circle cx="28.0095" cy="28.2719" r="28" fill="white" fill-opacity="0.1"/>
<path fill-rule="evenodd" clip-rule="evenodd" d="M39.0095 28.2719C39.0095 22.1967 34.0846 17.2719 28.0095 17.2719C21.9343 17.2719 17.0095 22.1967 17.0095 28.2719C17.0095 34.347 21.9343 39.2719 28.0095 39.2719C34.0846 39.2719 39.0095 34.347 39.0095 28.2719ZM19.0095 28.2719C19.0095 24.4836 21.3501 21.2419 24.664 19.9142C23.615 21.9392 23.0095 24.9442 23.0095 28.2719C23.0095 31.5995 23.615 34.6046 24.664 36.6296C21.3501 35.3018 19.0095 32.0602 19.0095 28.2719ZM33.0095 28.2719C33.0095 31.5995 32.4039 34.6046 31.3549 36.6296C34.6689 35.3019 37.0095 32.0602 37.0095 28.2719C37.0095 24.4836 34.6689 21.2419 31.3549 19.9142C32.4039 21.9392 33.0095 24.9442 33.0095 28.2719ZM25.0095 28.2719C25.0095 23.2559 26.6031 19.2719 28.0095 19.2719C29.4159 19.2719 31.0095 23.2559 31.0095 28.2719C31.0095 33.2879 29.4159 37.2719 28.0095 37.2719C26.6031 37.2719 25.0095 33.2879 25.0095 28.2719Z" fill="white"/>
<path fill-rule="evenodd" clip-rule="evenodd" d="M37.0724 26.9225L38.9464 27.6212C38.2047 29.6106 33.3231 31.2719 28.0094 31.2719C22.2865 31.2719 17.7335 29.8421 17.0513 27.5581L18.9676 26.9856C19.0837 27.3743 19.9497 27.9584 21.4177 28.4194C23.1439 28.9615 25.451 29.2719 28.0094 29.2719C32.5568 29.2719 36.7254 27.8532 37.0724 26.9225Z" fill="white"/>
<path d="M17.4333 77.9359H14.7731V85.2719H13.3024V77.9359H10.6657V76.7406H17.4333V77.9359ZM16.9352 82.0434C16.9352 81.4223 17.0583 80.8637 17.3044 80.3676C17.5505 79.8676 17.8962 79.4848 18.3415 79.2191C18.7868 78.9496 19.2985 78.8148 19.8766 78.8148C20.7321 78.8148 21.4255 79.0902 21.9567 79.641C22.4919 80.1918 22.7809 80.9223 22.8239 81.8324L22.8298 82.1664C22.8298 82.7914 22.7087 83.35 22.4665 83.8422C22.2282 84.3344 21.8845 84.7152 21.4352 84.9848C20.9899 85.2543 20.4743 85.3891 19.8884 85.3891C18.9938 85.3891 18.277 85.0922 17.738 84.4984C17.2028 83.9008 16.9352 83.1059 16.9352 82.1137V82.0434ZM18.3591 82.1664C18.3591 82.8188 18.4938 83.3305 18.7634 83.7016C19.0329 84.0688 19.4079 84.2523 19.8884 84.2523C20.3688 84.2523 20.7419 84.0648 21.0075 83.6898C21.277 83.3148 21.4118 82.766 21.4118 82.0434C21.4118 81.4027 21.2731 80.8949 20.9958 80.5199C20.7224 80.1449 20.3493 79.9574 19.8766 79.9574C19.4118 79.9574 19.0427 80.143 18.7692 80.5141C18.4958 80.8813 18.3591 81.432 18.3591 82.1664ZM29.5856 82.1664C29.5856 83.1469 29.363 83.9301 28.9177 84.516C28.4724 85.0981 27.8747 85.3891 27.1247 85.3891C26.4294 85.3891 25.8727 85.1606 25.4548 84.7035V87.7094H24.0309V78.932H25.3434L25.402 79.5766C25.82 79.0688 26.3884 78.8148 27.1071 78.8148C27.8806 78.8148 28.486 79.1039 28.9235 79.682C29.3649 80.2563 29.5856 81.0551 29.5856 82.0785V82.1664ZM28.1677 82.0434C28.1677 81.4106 28.0407 80.9086 27.7868 80.5375C27.5368 80.1664 27.1774 79.9809 26.7087 79.9809C26.1266 79.9809 25.7087 80.2211 25.4548 80.7016V83.5141C25.7126 84.0063 26.1345 84.2523 26.7204 84.2523C27.1735 84.2523 27.527 84.0707 27.7809 83.7074C28.0388 83.3402 28.1677 82.7856 28.1677 82.0434ZM32.3102 85.2719H30.8864V78.932H32.3102V85.2719ZM30.7985 77.2856C30.7985 77.0668 30.8669 76.8852 31.0036 76.7406C31.1442 76.5961 31.3434 76.5238 31.6013 76.5238C31.8591 76.5238 32.0583 76.5961 32.1989 76.7406C32.3395 76.8852 32.4099 77.0668 32.4099 77.2856C32.4099 77.5004 32.3395 77.6801 32.1989 77.8246C32.0583 77.9652 31.8591 78.0356 31.6013 78.0356C31.3434 78.0356 31.1442 77.9652 31.0036 77.8246C30.8669 77.6801 30.7985 77.5004 30.7985 77.2856ZM36.4704 84.2523C36.8259 84.2523 37.1208 84.1488 37.3552 83.9418C37.5895 83.7348 37.7145 83.4789 37.7302 83.1742H39.072C39.0563 83.5688 38.9333 83.9379 38.7028 84.2816C38.4724 84.6215 38.1599 84.891 37.7653 85.0902C37.3708 85.2895 36.945 85.3891 36.488 85.3891C35.6013 85.3891 34.8981 85.102 34.3786 84.5277C33.8591 83.9535 33.5993 83.1606 33.5993 82.1488V82.0023C33.5993 81.0375 33.8571 80.266 34.3727 79.6879C34.8884 79.1059 35.5915 78.8148 36.4821 78.8148C37.236 78.8148 37.8493 79.0356 38.322 79.477C38.7985 79.9145 39.0485 80.4906 39.072 81.2055H37.7302C37.7145 80.8422 37.5895 80.5434 37.3552 80.309C37.1247 80.0746 36.8298 79.9574 36.4704 79.9574C36.0095 79.9574 35.654 80.1254 35.404 80.4613C35.154 80.7934 35.027 81.2992 35.0231 81.9789V82.2074C35.0231 82.8949 35.1462 83.4086 35.3923 83.7484C35.6423 84.0844 36.0016 84.2523 36.4704 84.2523ZM43.7009 83.5492C43.7009 83.2953 43.5954 83.102 43.3845 82.9691C43.1774 82.8363 42.8317 82.7191 42.3474 82.6176C41.863 82.516 41.4587 82.3871 41.1345 82.2309C40.4235 81.8871 40.0681 81.3891 40.0681 80.7367C40.0681 80.1898 40.2985 79.7328 40.7595 79.3656C41.2204 78.9984 41.8063 78.8148 42.5173 78.8148C43.2751 78.8148 43.8864 79.0023 44.3513 79.3773C44.82 79.7523 45.0544 80.2387 45.0544 80.8363H43.6306C43.6306 80.5629 43.529 80.3363 43.3259 80.1566C43.1227 79.9731 42.8532 79.8813 42.5173 79.8813C42.2048 79.8813 41.9489 79.9535 41.7497 80.0981C41.5544 80.2426 41.4567 80.4359 41.4567 80.6781C41.4567 80.8969 41.5485 81.0668 41.7321 81.1879C41.9157 81.309 42.2868 81.432 42.8454 81.557C43.404 81.6781 43.8415 81.8246 44.1579 81.9965C44.4782 82.1645 44.7145 82.3676 44.8669 82.6059C45.0231 82.8441 45.1013 83.1332 45.1013 83.4731C45.1013 84.0434 44.8649 84.5063 44.3923 84.8617C43.9196 85.2133 43.3005 85.3891 42.5349 85.3891C42.0153 85.3891 41.5524 85.2953 41.1462 85.1078C40.7399 84.9203 40.4235 84.6625 40.197 84.3344C39.9704 84.0063 39.8571 83.6527 39.8571 83.2738H41.2399C41.2595 83.6098 41.3864 83.8695 41.6208 84.0531C41.8552 84.2328 42.1657 84.3227 42.5524 84.3227C42.9274 84.3227 43.2126 84.2523 43.4079 84.1117C43.6032 83.9672 43.7009 83.7797 43.7009 83.5492Z" fill="white"/>
<defs>
<linearGradient id="paint0_linear_23_435" x1="28.0095" y1="0.271881" x2="28.0095" y2="56.2719" gradientUnits="userSpaceOnUse">
<stop stop-color="#91BEE4"/>
<stop offset="1" stop-color="white" stop-opacity="0"/>
</linearGradient>
</defs>
</svg>
