<svg width="32" height="32" viewBox="0 0 32 32" fill="none" xmlns="http://www.w3.org/2000/svg">
<circle r="15.5" transform="matrix(-1 0 0 1 16.1865 15.7719)" fill="#898F97" fill-opacity="0.15"/>
<path fill-rule="evenodd" clip-rule="evenodd" d="M7.68718 17.2722C7.68718 18.6182 8.59146 19.6721 10.0871 19.6721H12.5454L12.5231 19.7327C12.5009 19.7928 12.4382 19.958 12.3774 20.1184L12.3774 20.1184C12.3235 20.2603 12.2711 20.3986 12.2493 20.457C12.0972 20.8652 11.9862 21.1942 11.8964 21.5199C11.7607 22.0123 11.687 22.4559 11.687 22.872C11.687 24.0495 12.4135 24.7809 13.4883 25.0939C13.9731 25.2351 14.395 25.272 14.8869 25.2719H15.2704L15.5106 24.9728C15.7819 24.6349 16.3148 24.026 16.9291 23.324L16.9291 23.324L16.9292 23.324C18.0625 22.0289 19.4731 20.417 20.0303 19.6054C20.1749 19.6484 20.3281 19.6714 20.4866 19.6714H22.0865C22.9702 19.6714 23.6865 18.9551 23.6865 18.0715V10.8718C23.6865 9.98819 22.9702 9.27188 22.0865 9.27188H20.4866C19.9369 9.27188 19.452 9.54908 19.164 9.97131C18.9213 9.81435 18.6505 9.68334 18.3562 9.57804C17.6824 9.33695 17.0141 9.26293 16.4593 9.27307L10.887 9.2726C8.68302 9.2726 7.68718 12.5176 7.68718 17.2722ZM17.8172 11.0844C18.5251 11.3377 18.8867 11.7507 18.8867 12.4725V18.0715V18.0722C18.8867 18.2644 18.8511 18.4345 18.7733 18.6162C18.6335 18.9426 17.3652 20.3896 16.1631 21.7611L16.1631 21.7611C15.5426 22.4689 14.9398 23.1567 14.5189 23.6598C14.3178 23.6448 14.1282 23.6139 13.9356 23.5578C13.4772 23.4243 13.2869 23.2328 13.2869 22.872C13.2869 22.6187 13.3382 22.3102 13.4388 21.9451C13.514 21.6724 13.6114 21.3838 13.7486 21.0155C13.768 20.9633 13.8166 20.8352 13.8683 20.6991L13.8684 20.6988L13.8691 20.6968C13.9318 20.5315 13.9989 20.3549 14.0237 20.2877C14.1278 20.0064 14.1963 19.7993 14.2432 19.6111C14.4424 18.8111 14.2425 18.0722 13.2869 18.0722H10.0871C9.53412 18.0722 9.28711 17.7843 9.28711 17.2722C9.28711 13.4398 10.075 10.8725 10.887 10.8725H16.4868L16.5163 10.872C16.8665 10.8658 17.3582 10.9202 17.8172 11.0844ZM22.0865 10.8718V18.0715H20.4866V10.8718H22.0865Z" fill="#898F97"/>
</svg>
